<?xml version="1.0" encoding="UTF-8"?>
<svg version="1.1" xmlns="http://www.w3.org/2000/svg" width="128" height="128">
<path d="M0 0 C-0.33 0.99 -0.66 1.98 -1 3 C-1.66 3 -2.32 3 -3 3 C-3.226875 3.53625 -3.45375 4.0725 -3.6875 4.625 C-5.43382056 7.78500863 -7.6402849 10.2676983 -10 13 C-9.45472656 13.42667969 -8.90945312 13.85335938 -8.34765625 14.29296875 C3.09416904 23.77892647 11.8582586 37.05064505 14 52 C14.61530824 62.43582309 15.0606972 73.20484153 11 83 C10.54753906 84.10472656 10.09507813 85.20945312 9.62890625 86.34765625 C2.54737216 101.9542026 -8.9642554 112.64893874 -24.90234375 119.2265625 C-40.81539259 125.09394364 -56.54806785 123.2184605 -72 117 C-74.81709136 115.7043622 -74.81709136 115.7043622 -76.80932617 116.71264648 C-77.46392822 117.09493408 -78.11853027 117.47722168 -78.79296875 117.87109375 C-79.50517578 118.28037109 -80.21738281 118.68964844 -80.95117188 119.11132812 C-82.0581543 119.7677832 -82.0581543 119.7677832 -83.1875 120.4375 C-83.93708984 120.87126953 -84.68667969 121.30503906 -85.45898438 121.75195312 C-87.31127243 122.82557231 -89.1563425 123.91162681 -91 125 C-91.33 124.01 -91.66 123.02 -92 122 C-91.16855469 121.31164062 -91.16855469 121.31164062 -90.3203125 120.609375 C-89.59585938 119.99578125 -88.87140625 119.3821875 -88.125 118.75 C-87.40570313 118.14671875 -86.68640625 117.5434375 -85.9453125 116.921875 C-84.02947882 115.02912366 -83.03550955 113.46342273 -82 111 C-82.64066406 110.46632813 -83.28132813 109.93265625 -83.94140625 109.3828125 C-96.0376797 98.96307173 -104.71045528 85.83731359 -106.22094727 69.62915039 C-107.11629952 51.01304714 -103.41248818 35.80809193 -91.1875 21.1875 C-80.67059753 9.98162897 -66.05554161 2.51493738 -50.65625 1.71484375 C-41.44759046 1.44417264 -31.21985593 1.39321964 -23.01953125 6.1484375 C-20.92421102 7.33682808 -19.39411811 7.73862187 -17 8 C-15.07468993 7.4376974 -15.07468993 7.4376974 -13.24609375 6.40625 C-12.56973877 6.0553833 -11.89338379 5.7045166 -11.1965332 5.34301758 C-9.17378039 4.21471009 -7.1817291 3.04640319 -5.1953125 1.85546875 C-2 0 -2 0 0 0 Z " fill="#474647" transform="translate(110,2)"/>
<path d="M0 0 C-0.33 0.99 -0.66 1.98 -1 3 C-1.66 3 -2.32 3 -3 3 C-3.226875 3.53625 -3.45375 4.0725 -3.6875 4.625 C-5.43382056 7.78500863 -7.6402849 10.2676983 -10 13 C-9.45472656 13.42667969 -8.90945312 13.85335938 -8.34765625 14.29296875 C0.87454752 21.93872743 8.02192605 31.28624246 11 43 C10.34 43 9.68 43 9 43 C8.67128906 42.26136719 8.34257813 41.52273437 8.00390625 40.76171875 C2.11094505 28.09140845 2.11094505 28.09140845 -8 19 C-7.505 22.96 -7.505 22.96 -7 27 C-7.79664062 26.36771484 -7.79664062 26.36771484 -8.609375 25.72265625 C-9.31578125 25.17480469 -10.0221875 24.62695312 -10.75 24.0625 C-11.44609375 23.51722656 -12.1421875 22.97195312 -12.859375 22.41015625 C-15.69577609 20.42472102 -15.69577609 20.42472102 -19 20 C-21.22272923 21.79086744 -23.06054188 23.50062559 -25 25.5625 C-25.52078125 26.08908203 -26.0415625 26.61566406 -26.578125 27.15820312 C-29.10331595 29.76310338 -31.27668149 32.31361098 -33.1875 35.40234375 C-33.785625 36.25957031 -34.38375 37.11679687 -35 38 C-35.99 38 -36.98 38 -38 38 C-38.36738281 38.87205078 -38.36738281 38.87205078 -38.7421875 39.76171875 C-40.20047669 42.35674889 -41.89592034 43.85106969 -44.125 45.8125 C-47.02872616 48.52164752 -47.02872616 48.52164752 -48.5234375 52.07421875 C-48.54660132 54.19023941 -48.54660132 54.19023941 -48 57 C-47.360625 56.34 -46.72125 55.68 -46.0625 55 C-45.60488281 54.55527344 -45.14726563 54.11054687 -44.67578125 53.65234375 C-43.41154443 52.40578857 -42.18597421 51.11984445 -40.98046875 49.81640625 C-35.3207106 44.09717603 -35.3207106 44.09717603 -31.6640625 43.828125 C-29.28986131 44.3305157 -27.22877536 45.04365276 -25 46 C-24.31164062 46.26296875 -23.62328125 46.5259375 -22.9140625 46.796875 C-18.39583333 48.60416667 -18.39583333 48.60416667 -17 50 C-16.91348389 51.41570123 -16.89295096 52.835595 -16.90234375 54.25390625 C-16.90717773 55.53491211 -16.90717773 55.53491211 -16.91210938 56.84179688 C-16.92467773 58.18854492 -16.92467773 58.18854492 -16.9375 59.5625 C-16.94201172 60.46419922 -16.94652344 61.36589844 -16.95117188 62.29492188 C-16.96299775 64.53001314 -16.9794778 66.76497437 -17 69 C-17.93187134 69.1868335 -17.93187134 69.1868335 -18.88256836 69.37744141 C-21.17976329 69.86207709 -21.17976329 69.86207709 -22.87890625 71.9609375 C-25.49584067 74.47666451 -27.41212149 74.88702669 -30.9375 75.625 C-34.80340315 76.4558515 -38.41636178 77.29472671 -42 79 C-42.33 79.66 -42.66 80.32 -43 81 C-44.22682757 81.6306123 -45.48212021 82.20662295 -46.75 82.75 C-50.95496809 84.7552161 -53.10135265 87.33855072 -56 91 C-57.9328853 92.5038678 -59.89883566 93.72952854 -62 95 C-57.86831812 86.41881456 -57.86831812 86.41881456 -55.12109375 85.09375 C-52.5986387 83.79303653 -51.26187354 82.28812746 -49.4375 80.125 C-48.85871094 79.44695312 -48.27992187 78.76890625 -47.68359375 78.0703125 C-47.12800781 77.38710937 -46.57242188 76.70390625 -46 76 C-45.42765625 75.31164062 -44.8553125 74.62328125 -44.265625 73.9140625 C-42.70239622 71.9952224 -42.70239622 71.9952224 -43.3125 69.25 C-43.539375 68.5075 -43.76625 67.765 -44 67 C-48.25207606 69.49602387 -51.97617157 71.90304491 -55.4375 75.4375 C-57.50965686 77.27784023 -58.4315985 77.98105328 -61.2265625 78.07421875 C-66.09862914 77.13728286 -70.38012313 75.44329752 -74 72 C-75.05888629 69.03818762 -75.61380188 66.11621935 -76 63 C-76.78503906 63.02320313 -77.57007812 63.04640625 -78.37890625 63.0703125 C-84.34792603 63.17284781 -89.37403518 63.04580539 -95 61 C-95.33 59.68 -95.66 58.36 -96 57 C-96.2144997 65.27015524 -96.07422976 72.96235969 -94 81 C-97.96 80.505 -97.96 80.505 -102 80 C-104.56525969 72.81119311 -105.55041683 66.30682365 -105.5 58.6875 C-105.49427979 57.67856689 -105.48855957 56.66963379 -105.48266602 55.63012695 C-105.18065494 42.98328594 -100.81681145 33.90246294 -93 24 C-92.52820313 23.36449219 -92.05640625 22.72898437 -91.5703125 22.07421875 C-82.9687298 11.1157052 -68.61322036 3.9775962 -55 2 C-44.60473483 1.16518471 -32.31681522 0.75711307 -23.01953125 6.1484375 C-20.92421102 7.33682808 -19.39411811 7.73862187 -17 8 C-15.07468993 7.4376974 -15.07468993 7.4376974 -13.24609375 6.40625 C-12.56973877 6.0553833 -11.89338379 5.7045166 -11.1965332 5.34301758 C-9.17378039 4.21471009 -7.1817291 3.04640319 -5.1953125 1.85546875 C-2 0 -2 0 0 0 Z " fill="#8A8B8B" transform="translate(110,2)"/>
<path d="M0 0 C2.33564118 1.00806093 3.89252238 2.23391146 5.77734375 3.9375 C6.69773437 4.75927734 6.69773437 4.75927734 7.63671875 5.59765625 C8.095625 6.01917969 8.55453125 6.44070312 9.02734375 6.875 C9.02734375 4.565 9.02734375 2.255 9.02734375 -0.125 C16.63406087 2.72751892 22.57307607 13.81627909 26.02734375 20.875 C26.02734375 21.865 26.02734375 22.855 26.02734375 23.875 C27.01734375 23.875 28.00734375 23.875 29.02734375 23.875 C32.35157796 36.5135596 33.10383885 51.62954766 28.02734375 63.875 C27.57488281 64.97972656 27.12242188 66.08445312 26.65625 67.22265625 C19.57471591 82.8292026 8.06308835 93.52393874 -7.875 100.1015625 C-23.62971971 105.9105653 -39.69878978 104.30170884 -54.97265625 97.875 C-55.63265625 97.545 -56.29265625 97.215 -56.97265625 96.875 C-55.97265625 93.875 -55.97265625 93.875 -53.59765625 92 C-49.64521946 90.77338169 -48.86171886 90.9800522 -45.09765625 92.1875 C-33.94966149 95.6863951 -20.93031752 94.79744689 -9.97265625 90.875 C-9.64265625 90.215 -9.31265625 89.555 -8.97265625 88.875 C-7.31811099 88.17879442 -5.64930687 87.51614345 -3.97265625 86.875 C5.25916345 81.81987431 12.46772973 74.37419588 17.02734375 64.875 C17.02734375 63.885 17.02734375 62.895 17.02734375 61.875 C17.68734375 61.875 18.34734375 61.875 19.02734375 61.875 C20.25633721 55.80684478 21.30294589 50.07604812 21.02734375 43.875 C17.99300854 44.52937866 17.99300854 44.52937866 17 46.546875 C16.54947266 47.57554688 16.54947266 47.57554688 16.08984375 48.625 C14.45891243 52.13874392 12.4963174 54.87696056 10.02734375 57.875 C10.02734375 58.535 10.02734375 59.195 10.02734375 59.875 C8.37221979 60.89399091 6.70300259 61.89014202 5.02734375 62.875 C3.37068962 64.2972722 1.74634752 65.75784951 0.15234375 67.25 C-2.7832758 69.9533989 -5.65950849 72.46256186 -8.97265625 74.6875 C-11.72566541 76.69490251 -12.91494124 77.70185498 -13.97265625 80.875 C-15.53515625 78.0625 -15.53515625 78.0625 -16.97265625 74.875 C-15.82765756 71.44000392 -15.40290189 71.25836181 -12.375 69.61328125 C-11.65634766 69.21689453 -10.93769531 68.82050781 -10.19726562 68.41210938 C-9.44251953 68.00798828 -8.68777344 67.60386719 -7.91015625 67.1875 C-6.77223633 66.56391602 -6.77223633 66.56391602 -5.61132812 65.92773438 C-3.73632484 64.90178918 -1.85506282 63.88729756 0.02734375 62.875 C0.05683607 59.41668516 0.07430535 55.95840346 0.08984375 52.5 C0.10241211 51.05173828 0.10241211 51.05173828 0.11523438 49.57421875 C0.1363668 43.27675711 -0.21158427 37.12660137 -0.97265625 30.875 C-8.64083904 26.97743904 -8.64083904 26.97743904 -16.97265625 25.875 C-21.87906393 29.03176419 -25.3931369 33.3317639 -28.97265625 37.875 C-29.63265625 37.875 -30.29265625 37.875 -30.97265625 37.875 C-31.77734375 34.70703125 -31.77734375 34.70703125 -31.97265625 30.875 C-29.91796875 28.07421875 -29.91796875 28.07421875 -27.09765625 25.5625 C-23.56677751 22.57797281 -23.56677751 22.57797281 -20.97265625 18.875 C-19.98265625 18.875 -18.99265625 18.875 -17.97265625 18.875 C-17.70839844 18.29363281 -17.44414063 17.71226563 -17.171875 17.11328125 C-15.0728747 13.19560316 -11.96403151 10.13173919 -8.97265625 6.875 C-8.35390625 6.17890625 -7.73515625 5.4828125 -7.09765625 4.765625 C-6.49953125 4.12109375 -5.90140625 3.4765625 -5.28515625 2.8125 C-4.74503906 2.22339844 -4.20492187 1.63429688 -3.6484375 1.02734375 C-1.97265625 -0.125 -1.97265625 -0.125 0 0 Z " fill="#3C3C3D" transform="translate(92.97265625,21.125)"/>
<path d="M0 0 C0 0.66 0 1.32 0 2 C-0.99 2 -1.98 2 -3 2 C-3.33 2.99 -3.66 3.98 -4 5 C-5.51879883 6.1315918 -5.51879883 6.1315918 -7.45703125 7.19921875 C-8.50793945 7.80733398 -8.50793945 7.80733398 -9.58007812 8.42773438 C-11.0511441 9.25786347 -12.52764453 10.07844568 -14.00976562 10.88867188 C-18.75661302 13.66381871 -21.1082728 16.07483504 -23.20532227 21.19262695 C-24.31244375 23.71060555 -25.87035244 25.29628195 -28 27 C-28.66 27 -29.32 27 -30 27 C-30.33 27.99 -30.66 28.98 -31 30 C-36.94640545 33.56784327 -43.17632307 33.79730368 -50 33 C-50.66 32.34 -51.32 31.68 -52 31 C-51.3608667 30.64284912 -50.7217334 30.28569824 -50.06323242 29.91772461 C-47.1028003 28.26093963 -44.14515077 26.59924471 -41.1875 24.9375 C-39.68026367 24.09541992 -39.68026367 24.09541992 -38.14257812 23.23632812 C-29.84649525 18.56811429 -21.56173843 13.8077213 -14 8 C-17.11910856 6.20724134 -19.67682428 5.65709282 -23.25 5.375 C-24.14203125 5.30023438 -25.0340625 5.22546875 -25.953125 5.1484375 C-26.96632813 5.07496094 -26.96632813 5.07496094 -28 5 C-27.938125 6.03125 -27.87625 7.0625 -27.8125 8.125 C-28.0255318 12.52765724 -28.3784537 14.45320207 -31 18 C-34.21245602 19.96575408 -37.53558846 21.53103751 -41 23 C-41.99 20.69 -42.98 18.38 -44 16 C-43.34 18.64 -42.68 21.28 -42 24 C-44.62214328 25.50519387 -47.24744208 27.00431319 -49.875 28.5 C-50.62136719 28.92925781 -51.36773437 29.35851563 -52.13671875 29.80078125 C-52.85214844 30.20683594 -53.56757812 30.61289062 -54.3046875 31.03125 C-55.2944458 31.59682617 -55.2944458 31.59682617 -56.30419922 32.17382812 C-58 33 -58 33 -60 33 C-60 34.98 -60 36.96 -60 39 C-68.75554104 37.49588355 -75.87942475 34.23004109 -81.26953125 27.0625 C-82 25 -82 25 -81.3828125 22.58203125 C-74.20800703 9.18500748 -61.38010463 0.14429655 -47.33984375 -4.96875 C-31.57479351 -9.65272641 -14.32645422 -7.98975331 0 0 Z " fill="#8F8F91" transform="translate(93,11)"/>
<path d="M0 0 C0.33 0 0.66 0 1 0 C1.04898437 1.18335938 1.09796875 2.36671875 1.1484375 3.5859375 C1.52942265 11.90777938 2.0334298 19.87150984 4 28 C4.94875 27.979375 5.8975 27.95875 6.875 27.9375 C10 28 10 28 12 29 C11.7834375 28.44054687 11.566875 27.88109375 11.34375 27.3046875 C8.74244 19.81387815 6.82852901 10.14164396 10.01953125 2.5859375 C10.34308594 2.06257813 10.66664062 1.53921875 11 1 C11.33 3.64 11.66 6.28 12 9 C17.94 9.66 23.88 10.32 30 11 C30.680625 13.35125 30.680625 13.35125 31.375 15.75 C32.645728 18.96097935 33.44771983 20.62094767 36.31640625 22.58984375 C40.85670375 24.4912202 44.19070871 25.59787528 49 24 C50.86189026 22.4715121 50.86189026 22.4715121 52.4375 20.5625 C55.38155947 17.41183986 57.69613606 15.94475062 62 15 C62.66 16.98 63.32 18.96 64 21 C63.38511719 21.60328125 62.77023438 22.2065625 62.13671875 22.828125 C61.32847656 23.62734375 60.52023438 24.4265625 59.6875 25.25 C58.48673828 26.43335938 58.48673828 26.43335938 57.26171875 27.640625 C54.98886349 29.89069595 54.98886349 29.89069595 53.39453125 32.296875 C52.70423828 33.13992187 52.70423828 33.13992187 52 34 C51.01 34 50.02 34 49 34 C48.79117188 34.69351563 48.58234375 35.38703125 48.3671875 36.1015625 C46.57028995 39.91098531 44.08674861 42.42745642 41.125 45.375 C40.59519531 45.93316406 40.06539062 46.49132812 39.51953125 47.06640625 C37.9453125 48.6484375 37.9453125 48.6484375 35 51 C30.56435276 50.5490091 27.92426704 47.55283871 24.8125 44.625 C24.26658203 44.13 23.72066406 43.635 23.15820312 43.125 C20.63949612 40.79043639 19.10243102 39.30729306 18 36 C16.515 35.505 16.515 35.505 15 35 C14.6596875 34.0409375 14.6596875 34.0409375 14.3125 33.0625 C12.6714195 30.48365921 11.77598772 30.45867714 8.875 29.75 C7.59625 29.5025 6.3175 29.255 5 29 C9.56247451 39.5263917 14.8528452 46.9401807 23 55 C23.76957031 55.77085938 24.53914063 56.54171875 25.33203125 57.3359375 C26.15767578 58.15964844 26.15767578 58.15964844 27 59 C22.21797188 59 19.95011672 55.77721936 16.56640625 52.625 C5.70511311 41.51573213 -0.29016097 27.59806094 -0.17578125 12.09960938 C-0.15902344 11.22111328 -0.14226562 10.34261719 -0.125 9.4375 C-0.11597656 8.52419922 -0.10695312 7.61089844 -0.09765625 6.66992188 C-0.07437253 4.44632681 -0.0416771 2.22331323 0 0 Z " fill="#0F131F" transform="translate(4,54)"/>
<path d="M0 0 C2.33564118 1.00806093 3.89252238 2.23391146 5.77734375 3.9375 C6.69773437 4.75927734 6.69773437 4.75927734 7.63671875 5.59765625 C8.095625 6.01917969 8.55453125 6.44070312 9.02734375 6.875 C9.02734375 4.565 9.02734375 2.255 9.02734375 -0.125 C17.23213762 3.00063576 22.65528315 14.43414664 26.25 21.9140625 C27.02734375 23.875 27.02734375 23.875 27.02734375 25.875 C26.14691406 25.77960937 25.26648438 25.68421875 24.359375 25.5859375 C23.19792969 25.47507812 22.03648438 25.36421875 20.83984375 25.25 C19.69128906 25.13398437 18.54273438 25.01796875 17.359375 24.8984375 C13.99403959 24.87476574 12.01512669 25.40080201 9.02734375 26.875 C9.68734375 27.205 10.34734375 27.535 11.02734375 27.875 C10.36734375 29.195 9.70734375 30.515 9.02734375 31.875 C8.36734375 31.875 7.70734375 31.875 7.02734375 31.875 C7.29546875 32.57625 7.56359375 33.2775 7.83984375 34 C8.11723015 38.25325807 5.75355018 39.75933551 3.02734375 42.875 C2.16191676 45.59613503 2.16191676 45.59613503 2.02734375 47.875 C1.69734375 47.875 1.36734375 47.875 1.02734375 47.875 C0.96740234 46.10382813 0.96740234 46.10382813 0.90625 44.296875 C0.77607074 35.94820789 0.77607074 35.94820789 -2.86328125 28.890625 C-5.25541472 27.83287891 -7.39592223 27.2959516 -9.97265625 26.875 C-11.14828125 26.483125 -12.32390625 26.09125 -13.53515625 25.6875 C-18.84191198 25.9769594 -21.46376521 29.1061911 -24.97265625 32.875 C-26.31458493 34.53475389 -27.651751 36.19846641 -28.97265625 37.875 C-29.63265625 37.875 -30.29265625 37.875 -30.97265625 37.875 C-31.77734375 34.70703125 -31.77734375 34.70703125 -31.97265625 30.875 C-29.91796875 28.07421875 -29.91796875 28.07421875 -27.09765625 25.5625 C-23.56677751 22.57797281 -23.56677751 22.57797281 -20.97265625 18.875 C-19.98265625 18.875 -18.99265625 18.875 -17.97265625 18.875 C-17.57626953 18.00294922 -17.57626953 18.00294922 -17.171875 17.11328125 C-15.0728747 13.19560316 -11.96403151 10.13173919 -8.97265625 6.875 C-8.35390625 6.17890625 -7.73515625 5.4828125 -7.09765625 4.765625 C-6.49953125 4.12109375 -5.90140625 3.4765625 -5.28515625 2.8125 C-4.74503906 2.22339844 -4.20492187 1.63429688 -3.6484375 1.02734375 C-1.97265625 -0.125 -1.97265625 -0.125 0 0 Z " fill="#0B0C13" transform="translate(92.97265625,21.125)"/>
<path d="M0 0 C0.72392272 12.78930136 -3.97049365 24.60019208 -12.25 34.25 C-16.41275847 38.65437795 -20.74391014 42.00865263 -26 45 C-26.64582031 45.37769531 -27.29164062 45.75539062 -27.95703125 46.14453125 C-38.86232897 52.07470333 -51.86365427 54.05390718 -64.0234375 51.3203125 C-66.5 50.5 -66.5 50.5 -70 49 C-70 48.34 -70 47.68 -70 47 C-68.81645306 46.34106175 -67.63284587 45.68223172 -66.44921875 45.0234375 C-65.69261963 44.60231689 -64.93602051 44.18119629 -64.15649414 43.74731445 C-61.6814373 42.37163023 -59.20401129 41.00027703 -56.7265625 39.62890625 C-53.95873067 38.09507989 -51.20076118 36.54812239 -48.4609375 34.96484375 C-47.50445312 34.41957031 -46.54796875 33.87429687 -45.5625 33.3125 C-44.73878906 32.83425781 -43.91507813 32.35601562 -43.06640625 31.86328125 C-41 31 -41 31 -38 32 C-36.8125 34.5625 -36.8125 34.5625 -36 37 C-35.63648438 36.278125 -35.27296875 35.55625 -34.8984375 34.8125 C-32.62794476 31.44880705 -29.87137433 29.33972925 -26.625 27 C-23.26004823 24.54158774 -20.18552966 22.1913773 -17.2734375 19.1875 C-15 17 -15 17 -12 17 C-12.495 15.515 -12.495 15.515 -13 14 C-11.890625 12.38671875 -11.890625 12.38671875 -10.25 10.6875 C-8.05802185 8.30315425 -6.79224681 6.58449363 -5.3125 3.625 C-3.93923367 0.87846735 -3.29936042 0 0 0 Z " fill="#613DAE" transform="translate(115,64)"/>
<path d="M0 0 C0 0.66 0 1.32 0 2 C-1.58941406 2.83144531 -1.58941406 2.83144531 -3.2109375 3.6796875 C-4.59905995 4.41126555 -5.98707523 5.14304698 -7.375 5.875 C-8.07367188 6.23980469 -8.77234375 6.60460937 -9.4921875 6.98046875 C-13.51984796 9.10315095 -13.51984796 9.10315095 -17 12 C-16.67 12.66 -16.34 13.32 -16 14 C-16.94875 14.5775 -17.8975 15.155 -18.875 15.75 C-22.31786548 17.86148203 -22.31786548 17.86148203 -24 22 C-21.36 20.02 -18.72 18.04 -16 16 C-15.34 16.33 -14.68 16.66 -14 17 C-15.32 18.65 -16.64 20.3 -18 22 C-17.443125 21.6390625 -16.88625 21.278125 -16.3125 20.90625 C-10.86470321 17.5934006 -7.37430501 16.24372652 -1 17 C1.7794361 17.96742803 2.74860088 18.48031675 4.046875 21.1640625 C4.39492187 22.38222656 4.39492187 22.38222656 4.75 23.625 C4.99234375 24.44226563 5.2346875 25.25953125 5.484375 26.1015625 C5.65453125 26.72804688 5.8246875 27.35453125 6 28 C3.37785672 29.50519387 0.75255792 31.00431319 -1.875 32.5 C-2.62136719 32.92925781 -3.36773437 33.35851563 -4.13671875 33.80078125 C-4.85214844 34.20683594 -5.56757812 34.61289062 -6.3046875 35.03125 C-7.2944458 35.59682617 -7.2944458 35.59682617 -8.30419922 36.17382812 C-10 37 -10 37 -12 37 C-12 38.98 -12 40.96 -12 43 C-20.75554104 41.49588355 -27.87942475 38.23004109 -33.26953125 31.0625 C-34 29 -34 29 -33.3828125 26.58203125 C-27.85562783 16.26149717 -12.92090086 0 0 0 Z " fill="#FAF9FD" transform="translate(45,7)"/>
<path d="M0 0 C3.53233755 1.17744585 3.86308075 1.95605641 5.6875 5.0625 C6.34298828 6.16271484 6.34298828 6.16271484 7.01171875 7.28515625 C7.33785156 7.85105469 7.66398437 8.41695312 8 9 C7.34 9 6.68 9 6 9 C7.18139812 13.43024295 8.03335964 15.64145708 12 18 C15.03268887 18.78628026 15.03268887 18.78628026 18.25 19.1875 C19.86648437 19.42533203 19.86648437 19.42533203 21.515625 19.66796875 C22.74539062 19.83232422 22.74539062 19.83232422 24 20 C25.28317892 23.84953676 25.06643637 26.94738135 25 31 C24.67 30.34 24.34 29.68 24 29 C22.82244141 29.03480469 22.82244141 29.03480469 21.62109375 29.0703125 C15.65207397 29.17284781 10.62596482 29.04580539 5 27 C4.67 25.68 4.34 24.36 4 23 C3.7855003 31.27015524 3.92577024 38.96235969 6 47 C2.04 46.505 2.04 46.505 -2 46 C-4.56582491 38.80960918 -5.5459938 32.30777792 -5.5 24.6875 C-5.49935547 23.68581787 -5.49871094 22.68413574 -5.49804688 21.65209961 C-5.33601521 13.57207698 -3.86121548 7.18461881 0 0 Z " fill="#6C6C6D" transform="translate(10,36)"/>
<path d="M0 0 C2.4793824 6.24273068 3.31985731 11.28299653 3 18 C2.38125 18.25136719 1.7625 18.50273438 1.125 18.76171875 C-1.37184252 20.21668029 -1.87890141 21.19493499 -3 23.8125 C-4.60165783 27.31453756 -6.54495366 30.0188723 -9 33 C-9 33.66 -9 34.32 -9 35 C-10.65512396 36.01899091 -12.32434116 37.01514202 -14 38 C-15.65665413 39.4222722 -17.28099623 40.88284951 -18.875 42.375 C-21.81061955 45.0783989 -24.68685224 47.58756186 -28 49.8125 C-30.75300916 51.81990251 -31.94228499 52.82685498 -33 56 C-34.5625 53.1875 -34.5625 53.1875 -36 50 C-35.67 49.01 -35.34 48.02 -35 47 C-33.1018929 46.07592154 -31.19943832 45.15926216 -29.27197266 44.2980957 C-25.54052409 42.57672146 -21.99604984 40.85736083 -19 38 C-17.66623666 33.90835826 -17.59400473 30.82712829 -17.8515625 26.55078125 C-18.06105152 21.53958343 -17.06984087 18.29010223 -13.875 14.4375 C-11.7396027 12.17402161 -11.7396027 12.17402161 -12 9.4375 C-12 7 -12 7 -10 4.6875 C-9.01 3.8521875 -9.01 3.8521875 -8 3 C-8.99 2.67 -9.98 2.34 -11 2 C-6.89657963 -0.38570952 -4.61380251 -1.49270081 0 0 Z " fill="#33246B" transform="translate(112,46)"/>
<path d="M0 0 C1.14915894 -0.00314209 1.14915894 -0.00314209 2.3215332 -0.00634766 C6.39558497 0.02565997 10.10134177 0.25936188 14.0625 1.3125 C18.19297451 2.26047776 20.078625 1.93967308 23.875 0.1875 C21.86810139 2.3150569 19.90641924 3.91118642 17.40625 5.421875 C16.75269531 5.83179688 16.09914062 6.24171875 15.42578125 6.6640625 C14.06554939 7.50870171 12.69833749 8.34220862 11.32421875 9.1640625 C6.421944 12.27753877 4.78365073 14.71860514 2.875 20.1875 C0.8125 22.625 0.8125 22.625 -1.125 24.1875 C-1.785 24.1875 -2.445 24.1875 -3.125 24.1875 C-3.455 25.1775 -3.785 26.1675 -4.125 27.1875 C-10.07140545 30.75534327 -16.30132307 30.98480368 -23.125 30.1875 C-23.785 29.5275 -24.445 28.8675 -25.125 28.1875 C-24.4858667 27.83034912 -23.8467334 27.47319824 -23.18823242 27.10522461 C-20.2278003 25.44843963 -17.27015077 23.78674471 -14.3125 22.125 C-13.30767578 21.56361328 -12.30285156 21.00222656 -11.26757812 20.42382812 C-2.97149525 15.75561429 5.31326157 10.9952213 12.875 5.1875 C9.75589144 3.39474134 7.19817572 2.84459282 3.625 2.5625 C2.73296875 2.48773437 1.8409375 2.41296875 0.921875 2.3359375 C-0.09132813 2.26246094 -0.09132813 2.26246094 -1.125 2.1875 C-1.063125 3.21875 -1.00125 4.25 -0.9375 5.3125 C-1.1505318 9.71515724 -1.5034537 11.64070207 -4.125 15.1875 C-7.33745602 17.15325408 -10.66058846 18.71853751 -14.125 20.1875 C-14.516875 19.07375 -14.90875 17.96 -15.3125 16.8125 C-16.45944126 14.16653319 -16.84670216 13.3575709 -19.375 11.8125 C-22.61155829 11.07691857 -25.82925405 10.57523482 -29.125 10.1875 C-25.45618732 6.96526565 -22.07794677 5.16805647 -17.5 3.5 C-16.37335937 3.08363281 -15.24671875 2.66726562 -14.0859375 2.23828125 C-9.20855082 0.50738809 -5.14567153 -0.00331658 0 0 Z " fill="#B59CE4" transform="translate(66.125,13.8125)"/>
<path d="M0 0 C1.32 1.32 2.64 2.64 4 4 C-5.22138434 19.67635337 -17.30356492 29.66279556 -34.75 35.1875 C-49.62483681 38.45701859 -64.3471904 36.8264048 -78 30 C-77 27 -77 27 -74.625 25.125 C-70.67256321 23.89838169 -69.88906261 24.1050522 -66.125 25.3125 C-54.97700524 28.8113951 -41.95766127 27.92244689 -31 24 C-30.67 23.34 -30.34 22.68 -30 22 C-29.875 28.75 -29.875 28.75 -31 31 C-18.11323897 25.05469675 -5.33881871 18.5863492 1 5 C0.77482958 2.26695092 0.77482958 2.26695092 0 0 Z " fill="#2A2A29" transform="translate(114,88)"/>
<path d="M0 0 C0.71727778 1.64551962 1.38325228 3.31422289 2 5 C2.66 5.66 3.32 6.32 4 7 C4.33333333 8.66666667 4.66666667 10.33333333 5 12 C5.66 12.66 6.32 13.32 7 14 C2.49354827 19.20648307 -4.41137721 19.80872245 -10.96484375 20.29296875 C-18.48089691 20.52416379 -25.0047534 19.99796283 -32 17 C-32 16.34 -32 15.68 -32 15 C-30.81645306 14.34106175 -29.63284587 13.68223172 -28.44921875 13.0234375 C-27.69261963 12.60231689 -26.93602051 12.18119629 -26.15649414 11.74731445 C-23.6814373 10.37163023 -21.20401129 9.00027703 -18.7265625 7.62890625 C-15.95873067 6.09507989 -13.20076118 4.54812239 -10.4609375 2.96484375 C-9.50445312 2.41957031 -8.54796875 1.87429687 -7.5625 1.3125 C-6.73878906 0.83425781 -5.91507813 0.35601562 -5.06640625 -0.13671875 C-3 -1 -3 -1 0 0 Z " fill="#5A37A7" transform="translate(77,96)"/>
<path d="M0 0 C0.33 0 0.66 0 1 0 C1.33 2.64 1.66 5.28 2 8 C3.28777344 8.12117188 4.57554688 8.24234375 5.90234375 8.3671875 C7.58077848 8.53596865 9.25916135 8.70526613 10.9375 8.875 C12.21270508 8.99294922 12.21270508 8.99294922 13.51367188 9.11328125 C14.72700195 9.23896484 14.72700195 9.23896484 15.96484375 9.3671875 C16.7137085 9.44050293 17.46257324 9.51381836 18.23413086 9.58935547 C18.81686768 9.72486816 19.39960449 9.86038086 20 10 C21.20272819 12.40545638 21.10071472 13.94996953 21.0625 16.625 C21.05347656 17.44226563 21.04445313 18.25953125 21.03515625 19.1015625 C21.02355469 19.72804688 21.01195313 20.35453125 21 21 C20.01 21.33 19.02 21.66 18 22 C17.67 22.66 17.34 23.32 17 24 C14.67145135 24.36526253 12.33701038 24.69350684 10 25 C7.98583438 25.62256028 5.97984481 26.27566653 4 27 C3.34 24.69 2.68 22.38 2 20 C1.34 20 0.68 20 0 20 C-1.4718061 17.05638781 -1.13180773 14.39951798 -1.125 11.125 C-1.12757812 9.89007813 -1.13015625 8.65515625 -1.1328125 7.3828125 C-1.02717861 4.69225511 -0.80529454 2.54370816 0 0 Z " fill="#08090E" transform="translate(14,55)"/>
<path d="M0 0 C1.23046875 2.140625 1.23046875 2.140625 2 5 C-4.05875896 17.21991948 -16.36026083 26.56383052 -29 31 C-29.66 31 -30.32 31 -31 31 C-31.11069239 27.78992057 -31.15712873 25.92748237 -30 23 C-27.74386554 21.19781613 -25.39200297 19.97309898 -22.8359375 18.6328125 C-15.38533075 14.34306922 -9.15234102 7.45992184 -3.3125 1.1875 C-2 0 -2 0 0 0 Z " fill="#4A494B" transform="translate(114,88)"/>
<path d="M0 0 C5.10679474 -0.1919046 9.78615829 -0.1941811 14.75 1.125 C18.72558826 2.14184673 21.20436775 1.75183027 25 0 C22.99310139 2.1275569 21.03141924 3.72368642 18.53125 5.234375 C17.87769531 5.64429688 17.22414062 6.05421875 16.55078125 6.4765625 C15.19054939 7.32120171 13.82333749 8.15470862 12.44921875 8.9765625 C7.546944 12.09003877 5.90865073 14.53110514 4 20 C1.9375 22.4375 1.9375 22.4375 0 24 C-0.66 24 -1.32 24 -2 24 C-2.33 24.99 -2.66 25.98 -3 27 C-8.94640545 30.56784327 -15.17632307 30.79730368 -22 30 C-22.66 29.34 -23.32 28.68 -24 28 C-23.3608667 27.64284912 -22.7217334 27.28569824 -22.06323242 26.91772461 C-19.1028003 25.26093963 -16.14515077 23.59924471 -13.1875 21.9375 C-12.18267578 21.37611328 -11.17785156 20.81472656 -10.14257812 20.23632812 C-1.84649525 15.56811429 6.43826157 10.8077213 14 5 C7.11175931 2.59009896 7.11175931 2.59009896 0 1 C0 0.67 0 0.34 0 0 Z " fill="#AAAAAA" transform="translate(65,14)"/>
<path d="M0 0 C0.33 0 0.66 0 1 0 C1 5.94 1 11.88 1 18 C0.34 18 -0.32 18 -1 18 C-1 17.34 -1 16.68 -1 16 C-1.639375 16.391875 -2.27875 16.78375 -2.9375 17.1875 C-18.12195853 26.17422036 -18.12195853 26.17422036 -27.04296875 25.8671875 C-30.06440213 26.07223488 -32.36690587 27.59160081 -35 29 C-35.99 28.67 -36.98 28.34 -38 28 C-30.88610478 21.29612756 -30.88610478 21.29612756 -26 21 C-25.67 20.01 -25.34 19.02 -25 18 C-22.9609375 17.12109375 -22.9609375 17.12109375 -20.375 16.4375 C-19.47136719 16.18613281 -18.56773438 15.93476562 -17.63671875 15.67578125 C-15.49492827 15.12684828 -13.34248886 14.61958761 -11.1875 14.125 C-7.42716772 12.7978239 -5.67049529 10.89939489 -3 8 C-2.34 8 -1.68 8 -1 8 C-0.67 5.36 -0.34 2.72 0 0 Z " fill="#6D6D6D" transform="translate(93,62)"/>
<path d="M0 0 C5.28886294 0.26010801 5.28886294 0.26010801 8 1 C9.6875 3.25 9.6875 3.25 11 6 C14.39556819 9.58023944 18.02441678 12.8842285 21.6875 16.1875 C26.81944444 20.81944444 26.81944444 20.81944444 29 23 C25.6951021 24.07868195 23.38236521 23.90419019 20 23.1875 C19.154375 23.01605469 18.30875 22.84460938 17.4375 22.66796875 C11.06751584 20.92234809 8.48796561 17.40590067 5 12 C0 3.04438642 0 3.04438642 0 0 Z " fill="#5D5D5D" transform="translate(9,83)"/>
<path d="M0 0 C0.99 0.33 1.98 0.66 3 1 C-8.51214986 7.55194121 -20.04338359 14.05992452 -31.6875 20.375 C-40.11910576 24.95080569 -48.45536399 29.63244901 -56.65625 34.61328125 C-61.67646008 37.66018586 -66.70753205 40.45177469 -72 43 C-72 40 -72 40 -70.4609375 38.3515625 C-69.77257812 37.78179687 -69.08421875 37.21203125 -68.375 36.625 C-67.27091797 35.70460938 -67.27091797 35.70460938 -66.14453125 34.765625 C-65.08298828 33.89164063 -65.08298828 33.89164063 -64 33 C-63.030625 32.13375 -62.06125 31.2675 -61.0625 30.375 C-57.27008975 27.43394716 -53.24516949 25.21692184 -49 23 C-49 23.99 -49 24.98 -49 26 C-38.26569738 20.78717572 -27.71622831 15.23815001 -17.1875 9.625 C-16.51112488 9.2650293 -15.83474976 8.90505859 -15.13787842 8.53417969 C-13.18853601 7.49607324 -11.24050419 6.45555427 -9.29296875 5.4140625 C-7.58403442 4.50068115 -7.58403442 4.50068115 -5.84057617 3.56884766 C-2.9239746 2.00947703 -2.9239746 2.00947703 0 0 Z " fill="#6C6C6C" transform="translate(90,84)"/>
<path d="M0 0 C0 0.99 0 1.98 0 3 C-2.65434402 5.41304002 -5.27065073 7.51376715 -8.25 9.5 C-10.17353486 10.89612399 -10.17353486 10.89612399 -10.79296875 13.24609375 C-12.77889167 17.77708293 -16.3809647 20.8574972 -19.78515625 24.37890625 C-21.80834371 26.77318983 -22.64867044 27.95275383 -23 31 C-23.58265625 31.09152344 -24.1653125 31.18304688 -24.765625 31.27734375 C-27.53183847 32.17201069 -28.76373964 33.46164769 -30.75 35.5625 C-31.36359375 36.20316406 -31.9771875 36.84382813 -32.609375 37.50390625 C-33.06828125 37.99761719 -33.5271875 38.49132813 -34 39 C-34.99 38.67 -35.98 38.34 -37 38 C-37.99 38.66 -38.98 39.32 -40 40 C-40.495 38.515 -40.495 38.515 -41 37 C-39.730447 36.35165346 -38.45930294 35.70642185 -37.1875 35.0625 C-36.12595703 34.52302734 -36.12595703 34.52302734 -35.04296875 33.97265625 C-33 33 -33 33 -30 32 C-29.49076162 30.40863008 -28.98586876 28.811115 -28.625 27.1796875 C-26.5237271 19.85149825 -24.4402775 16.90782392 -17.875 13.1875 C-13.23843171 10.806293 -13.23843171 10.806293 -10 7 C-9.01 7 -8.02 7 -7 7 C-7 6.01 -7 5.02 -7 4 C-3.535 2.02 -3.535 2.02 0 0 Z " fill="#6E6E6E" transform="translate(100,6)"/>
<path d="M0 0 C2.33333333 2.33333333 4.66666667 4.66666667 7 7 C9.88717605 7.6837613 9.88717605 7.6837613 13.125 8.125 C14.22070312 8.29257812 15.31640625 8.46015625 16.4453125 8.6328125 C17.28835937 8.75398438 18.13140625 8.87515625 19 9 C20.28317892 12.84953676 20.06643637 15.94738135 20 20 C19.67 19.34 19.34 18.68 19 18 C17.82244141 18.03480469 17.82244141 18.03480469 16.62109375 18.0703125 C10.65207397 18.17284781 5.62596482 18.04580539 0 16 C-0.1958009 14.08416353 -0.38132214 12.16727461 -0.5625 10.25 C-0.66691406 9.18265625 -0.77132813 8.1153125 -0.87890625 7.015625 C-0.98560074 4.35858796 -0.81930395 2.50039428 0 0 Z " fill="#19153B" transform="translate(15,47)"/>
<path d="M0 0 C10.55808656 -0.3690205 10.55808656 -0.3690205 15 2 C6.30764897 11.15403267 -5.19940768 16.78945764 -16.25 22.625 C-17.27464355 23.170354 -18.29928711 23.71570801 -19.35498047 24.27758789 C-20.31549316 24.77637451 -21.27600586 25.27516113 -22.265625 25.7890625 C-23.12961914 26.23975098 -23.99361328 26.69043945 -24.88378906 27.15478516 C-25.58213867 27.43370605 -26.28048828 27.71262695 -27 28 C-27.66 27.67 -28.32 27.34 -29 27 C-27.44038638 26.03697644 -25.87716775 25.07978996 -24.3125 24.125 C-23.00732422 23.32449219 -23.00732422 23.32449219 -21.67578125 22.5078125 C-19.16608918 21.09359186 -16.69700931 20.00105211 -14 19 C-14.7734375 17.6078125 -14.7734375 17.6078125 -15.5625 16.1875 C-17 13 -17 13 -16 10 C-14.68 12.31 -13.36 14.62 -12 17 C-5.95177041 14.2719174 -5.95177041 14.2719174 -1.5 9.625 C-0.89036142 6.42439746 -0.38071622 3.23608788 0 0 Z " fill="#61656B" transform="translate(65,16)"/>
<path d="M0 0 C2.25 0.9375 2.25 0.9375 3.625 2.75 C4.33724082 5.24284286 4.11172797 6.52466168 3.25 8.9375 C2.26 8.2775 1.27 7.6175 0.25 6.9375 C-0.15798828 7.77474609 -0.15798828 7.77474609 -0.57421875 8.62890625 C-8.70244565 24.58831522 -8.70244565 24.58831522 -15.75 26.9375 C-15.34821429 19.16964286 -15.34821429 19.16964286 -12.1875 15.75 C-9.40082673 12.53460776 -9.64495194 11.9293261 -9.75 7.9375 C-7.75 5.625 -7.75 5.625 -5.75 3.9375 C-6.74 3.6075 -7.73 3.2775 -8.75 2.9375 C-3.55839895 -0.0808727 -3.55839895 -0.0808727 0 0 Z " fill="#291C5B" transform="translate(109.75,45.0625)"/>
<path d="M0 0 C1.32 1.32 2.64 2.64 4 4 C-5.22138434 19.67635337 -17.30356492 29.66279556 -34.75 35.1875 C-49.62483681 38.45701859 -64.3471904 36.8264048 -78 30 C-78 29.34 -78 28.68 -78 28 C-75.39102736 28.52179453 -73.31366833 29.31571257 -70.875 30.4375 C-58.45452612 35.80567091 -44.94686307 34.6127003 -32 32 C-32.04125 30.72125 -32.0825 29.4425 -32.125 28.125 C-32.1953125 25.9453125 -32.1953125 25.9453125 -32 24 C-31.34 23.34 -30.68 22.68 -30 22 C-29.875 28.75 -29.875 28.75 -31 31 C-18.11323897 25.05469675 -5.33881871 18.5863492 1 5 C0.77482958 2.26695092 0.77482958 2.26695092 0 0 Z " fill="#111313" transform="translate(114,88)"/>
<path d="M0 0 C0.99 0.66 1.98 1.32 3 2 C1.68 2 0.36 2 -1 2 C-0.87882812 2.59425781 -0.75765625 3.18851563 -0.6328125 3.80078125 C0.65829328 10.18678908 1.85385592 16.58647035 3 23 C2.01 23.33 1.02 23.66 0 24 C-0.33 20.37 -0.66 16.74 -1 13 C-2.216875 13.04125 -3.43375 13.0825 -4.6875 13.125 C-9.91328877 13.097399 -12.7678193 12.04050814 -16.8125 8.625 C-19 6 -19 6 -19 2 C-12.81839396 2.53753096 -7.673142 4.54582388 -2 7 C-2 5.02 -2 3.04 -2 1 C-1.34 0.67 -0.68 0.34 0 0 Z " fill="#969A9E" transform="translate(35,43)"/>
<path d="M0 0 C0.1761262 4.40315498 0.1761262 4.40315498 -1 7 C-3.47048808 8.89347097 -5.98864099 10.30661074 -8.75 11.73828125 C-11.13278443 12.79773383 -11.13278443 12.79773383 -12 15 C-11.01 15.33 -10.02 15.66 -9 16 C-15.75 20 -15.75 20 -18 20 C-17.34 18.68 -16.68 17.36 -16 16 C-19.5786304 17.65167557 -22.74820188 19.78286492 -26 22 C-24.43586569 18.16076124 -21.90063768 15.90063768 -19 13 C-18.55398437 12.18789063 -18.10796875 11.37578125 -17.6484375 10.5390625 C-15.75086261 7.61625757 -14.08135769 6.50578409 -11.0625 4.8125 C-9.78052734 4.07966797 -9.78052734 4.07966797 -8.47265625 3.33203125 C-2.28739003 0 -2.28739003 0 0 0 Z " fill="#D9D9D9" transform="translate(45,9)"/>
<path d="M0 0 C7.60671712 2.85251892 13.54573232 13.94127909 17 21 C17 21.99 17 22.98 17 24 C12.00017649 24.35086481 12.00017649 24.35086481 9 23 C6.13354688 19.26307659 4.10527817 15.19917645 2 11 C1.34 10.01 0.68 9.02 0 8 C-0.25760279 5.30547479 -0.08900053 2.71451625 0 0 Z " fill="#303030" transform="translate(102,21)"/>
<path d="M0 0 C0 0.66 0 1.32 0 2 C-1.58941406 2.83144531 -1.58941406 2.83144531 -3.2109375 3.6796875 C-4.59905995 4.41126555 -5.98707523 5.14304698 -7.375 5.875 C-8.07367188 6.23980469 -8.77234375 6.60460937 -9.4921875 6.98046875 C-13.51984796 9.10315095 -13.51984796 9.10315095 -17 12 C-16.67 12.66 -16.34 13.32 -16 14 C-16.9075 14.515625 -17.815 15.03125 -18.75 15.5625 C-22.94209448 18.38696082 -25.41627493 22.16097353 -26.4296875 27.08984375 C-26.67112481 29.0542655 -26.83831249 31.02741237 -27 33 C-27.31074597 34.33877774 -27.63837971 35.67405895 -28 37 C-29.06331056 35.78950804 -30.10011317 34.55569232 -31.125 33.3125 C-31.70507812 32.62800781 -32.28515625 31.94351563 -32.8828125 31.23828125 C-34 29 -34 29 -33.42578125 26.5625 C-27.71109653 16.29172418 -13.01319009 0 0 0 Z " fill="#C6C5C7" transform="translate(45,7)"/>
<path d="M0 0 C1.32 0.66 2.64 1.32 4 2 C4 3.65 4 5.3 4 7 C3.37867187 7.25136719 2.75734375 7.50273438 2.1171875 7.76171875 C-0.3861515 9.22584875 -0.81234718 10.16598846 -1.875 12.8125 C-3.84260594 17.13336264 -6.18627259 19.22638006 -10 22 C-12.475 21.01 -12.475 21.01 -15 20 C-15 19.34 -15 18.68 -15 18 C-14.34 18 -13.68 18 -13 18 C-12.34 16.68 -11.68 15.36 -11 14 C-10.34 14 -9.68 14 -9 14 C-8.79375 13.319375 -8.5875 12.63875 -8.375 11.9375 C-6.80637043 8.58633682 -4.80901238 6.27350754 -2.33984375 3.55078125 C-0.90910919 2.02350546 -0.90910919 2.02350546 0 0 Z " fill="#46298D" transform="translate(111,57)"/>
<path d="M0 0 C0 2.64 0 5.28 0 8 C-4.73898266 10.45153075 -9.12062333 10.23154206 -14.3125 10.125 C-15.14845703 10.11597656 -15.98441406 10.10695313 -16.84570312 10.09765625 C-18.89725969 10.07420989 -20.94866777 10.03834266 -23 10 C-22.360625 9.896875 -21.72125 9.79375 -21.0625 9.6875 C-20.0415625 9.3471875 -20.0415625 9.3471875 -19 9 C-18.67 8.01 -18.34 7.02 -18 6 C-19.32 5.34 -20.64 4.68 -22 4 C-21.07058594 3.87882812 -20.14117187 3.75765625 -19.18359375 3.6328125 C-13.1779065 2.81869431 -5.9180117 0 0 0 Z " fill="#3D3D3C" transform="translate(82,112)"/>
<path d="M0 0 C0.42667969 0.44472656 0.85335938 0.88945313 1.29296875 1.34765625 C4.60841661 4.34864926 6.78182529 5.94894728 11.35546875 6.140625 C13.65683097 5.92606959 15.95402254 5.65853275 18.2421875 5.33203125 C21 5 21 5 23 6 C23 5.34 23 4.68 23 4 C24.32 4.33 25.64 4.66 27 5 C25.4324482 6.7021698 23.84540216 8.38640554 22.25 10.0625 C20.92742188 11.47208984 20.92742188 11.47208984 19.578125 12.91015625 C17 15 17 15 15.05859375 15.14453125 C11.92567502 13.40269977 9.40564584 11.06487184 6.8125 8.625 C6.26658203 8.13 5.72066406 7.635 5.15820312 7.125 C2.63949612 4.79043639 1.10243102 3.30729306 0 0 Z " fill="#1F1847" transform="translate(22,90)"/>
<path d="M0 0 C3.21705641 -0.11093298 5.06835847 -0.16309691 8 1 C9.88737303 3.29244602 11.17020687 5.64881531 12.546875 8.27734375 C14.6240626 12.16927858 17.27708667 15.54325187 20 19 C17.50638429 17.79618552 15.31856917 16.54571278 13 15 C12.01 14.67 11.02 14.34 10 14 C10 13.34 10 12.68 10 12 C8.68 12.33 7.36 12.66 6 13 C0.44419134 4.738041 0.44419134 4.738041 0 0 Z " fill="#8A888C" transform="translate(9,83)"/>
<path d="M0 0 C2.1875 0.3125 2.1875 0.3125 4 1 C0.33538076 4.34354988 -3.38861413 7.56977216 -7.35546875 10.55078125 C-7.93594971 10.98729004 -8.51643066 11.42379883 -9.11450195 11.87353516 C-10.27317877 12.73832487 -11.43698631 13.59628936 -12.60620117 14.44677734 C-15.5912651 16.67499549 -17.70990791 18.44816419 -19 22 C-20.5625 19.1875 -20.5625 19.1875 -22 16 C-20.81888143 12.45664428 -20.24653782 12.296919 -17.0703125 10.625 C-16.27496094 10.19703125 -15.47960937 9.7690625 -14.66015625 9.328125 C-13.82355469 8.88984375 -12.98695312 8.4515625 -12.125 8 C-10.47924012 7.12976927 -8.83590652 6.25493088 -7.1953125 5.375 C-6.09727295 4.79878906 -6.09727295 4.79878906 -4.97705078 4.2109375 C-2.9386684 3.07398525 -2.9386684 3.07398525 -1.37451172 1.33203125 C-0.92092285 0.89246094 -0.46733398 0.45289062 0 0 Z " fill="#4D2C96" transform="translate(98,80)"/>
<path d="M0 0 C0.48736475 6.70126536 -0.92291196 11.06561592 -4 17 C-6.8125 17.1875 -6.8125 17.1875 -10 17 C-11.69921875 15.48828125 -11.69921875 15.48828125 -13 14 C-12.60167969 13.56429687 -12.20335938 13.12859375 -11.79296875 12.6796875 C-9.17027581 9.73155091 -7.09093381 7.18186761 -5.3125 3.625 C-3.93923367 0.87846735 -3.29936042 0 0 0 Z " fill="#5A34A8" transform="translate(115,64)"/>
<path d="M0 0 C0.33 0 0.66 0 1 0 C1 1.98 1 3.96 1 6 C2.155 5.505 3.31 5.01 4.5 4.5 C11.45772055 2.12119666 18.75035778 2.7598278 26 3 C26 3.33 26 3.66 26 4 C24.99582031 4.15855469 23.99164063 4.31710938 22.95703125 4.48046875 C13.0048592 6.14344381 3.03815478 8.17312762 -5.61328125 13.65625 C-8 15 -8 15 -12 15 C-11 12 -11 12 -9.00390625 10.859375 C-8.19824219 10.49328125 -7.39257812 10.1271875 -6.5625 9.75 C-3.184377 8.04490201 -3.184377 8.04490201 -0.9609375 5.12109375 C-0.34278085 3.00066345 -0.34278085 3.00066345 0 0 Z " fill="#2B263F" transform="translate(45,9)"/>
<path d="M0 0 C1.32709834 3.01613258 0.92457017 4.23048003 -0.125 7.4375 C-3.3298551 14.16338425 -8.49957791 17.0405633 -15 20 C-15.65097656 20.36222656 -16.30195312 20.72445312 -16.97265625 21.09765625 C-21.6052234 23.1595503 -26.8229165 22.3304094 -31.5625 21 C-32.366875 20.67 -33.17125 20.34 -34 20 C-34 19.67 -34 19.34 -34 19 C-32.92621094 18.96261719 -31.85242187 18.92523438 -30.74609375 18.88671875 C-29.3098638 18.82100888 -27.87366738 18.75456332 -26.4375 18.6875 C-25.73302734 18.66494141 -25.02855469 18.64238281 -24.30273438 18.61914062 C-17.93532585 18.29636876 -13.13526905 16.89262484 -8.25 12.5625 C-4.93966946 8.79240134 -2.78097389 5.70685956 -1 1 C-0.67 0.67 -0.34 0.34 0 0 Z " fill="#808080" transform="translate(73,25)"/>
<path d="M0 0 C1.32 0.66 2.64 1.32 4 2 C3.34 3.32 2.68 4.64 2 6 C1.34 6 0.68 6 0 6 C0.268125 6.70125 0.53625 7.4025 0.8125 8.125 C1.0898864 12.37825807 -1.27379357 13.88433551 -4 17 C-4.86542699 19.72113503 -4.86542699 19.72113503 -5 22 C-5.33 22 -5.66 22 -6 22 C-6.66 16.06 -7.32 10.12 -8 4 C-3 3 -3 3 -1 4 C-0.67 2.68 -0.34 1.36 0 0 Z " fill="#151334" transform="translate(100,47)"/>
<path d="M0 0 C0.6875 1.75 0.6875 1.75 1 4 C0.01439389 5.34400833 -0.98758315 6.67607028 -2 8 C-2.72045367 11.15118325 -2.72045367 11.15118325 -3 14 C-5 13 -5 13 -6 10 C-9.83163192 7.97148898 -13.73052871 7.50229074 -18 7 C-12.18500926 2.15417438 -7.76738058 0 0 0 Z " fill="#C5B8EF" transform="translate(55,17)"/>
<path d="M0 0 C0.99 0.33 1.98 0.66 3 1 C-8.67399951 7.64405514 -20.36735259 14.25492026 -32.125 20.75 C-33.04168457 21.26272461 -33.95836914 21.77544922 -34.90283203 22.30371094 C-35.76247559 22.77583008 -36.62211914 23.24794922 -37.5078125 23.734375 C-38.63147217 24.35650879 -38.63147217 24.35650879 -39.77783203 24.99121094 C-42.17550771 26.07967456 -44.40762992 26.58134221 -47 27 C-47 26.34 -47 25.68 -47 25 C-46.16984375 24.59652344 -45.3396875 24.19304687 -44.484375 23.77734375 C-34.945324 19.09349835 -25.55430677 14.14203333 -16.1875 9.125 C-15.55896118 8.78894745 -14.93042236 8.4528949 -14.28283691 8.10665894 C-12.47266668 7.13814762 -10.6638101 6.1672336 -8.85546875 5.1953125 C-7.79996826 4.62828613 -6.74446777 4.06125977 -5.65698242 3.47705078 C-2.89634036 1.98906406 -2.89634036 1.98906406 0 0 Z " fill="#68676C" transform="translate(90,84)"/>
<path d="M0 0 C2.33333333 2.33333333 4.66666667 4.66666667 7 7 C9.88717605 7.6837613 9.88717605 7.6837613 13.125 8.125 C14.22070312 8.29257812 15.31640625 8.46015625 16.4453125 8.6328125 C17.28835937 8.75398438 18.13140625 8.87515625 19 9 C19.33 11.31 19.66 13.62 20 16 C19.67 15.01 19.34 14.02 19 13 C18.03578125 12.93941406 17.0715625 12.87882812 16.078125 12.81640625 C14.81484375 12.73261719 13.5515625 12.64882813 12.25 12.5625 C10.37054687 12.44068359 10.37054687 12.44068359 8.453125 12.31640625 C5.81682447 12.07484478 3.51962706 11.75716066 1 11 C1 9.35 1 7.7 1 6 C0.34 6 -0.32 6 -1 6 C-0.67 4.02 -0.34 2.04 0 0 Z " fill="#3F297D" transform="translate(15,47)"/>
<path d="M0 0 C-0.99 0.33 -1.98 0.66 -3 1 C-3 1.66 -3 2.32 -3 3 C-5.01171875 4.69140625 -5.01171875 4.69140625 -7.6875 6.5625 C-8.55761719 7.18253906 -9.42773438 7.80257812 -10.32421875 8.44140625 C-12.99896619 9.99939782 -14.9716977 10.53917139 -18 11 C-19.3303125 11.556875 -19.3303125 11.556875 -20.6875 12.125 C-21.450625 12.41375 -22.21375 12.7025 -23 13 C-23.66 12.67 -24.32 12.34 -25 12 C-17.88610478 5.29612756 -17.88610478 5.29612756 -13 5 C-12.67 4.01 -12.34 3.02 -12 2 C-9.78515625 1.015625 -9.78515625 1.015625 -7.0625 0.25 C-6.16660156 -0.01296875 -5.27070312 -0.2759375 -4.34765625 -0.546875 C-2 -1 -2 -1 0 0 Z " fill="#707070" transform="translate(80,78)"/>
<path d="M0 0 C2.08984375 0.4296875 2.08984375 0.4296875 4 1 C1.69828455 3.3664512 -0.63917046 5.69252254 -3 8 C-3.69480469 8.67933594 -4.38960937 9.35867187 -5.10546875 10.05859375 C-5.79253906 10.69925781 -6.47960937 11.33992188 -7.1875 12 C-7.82042969 12.598125 -8.45335938 13.19625 -9.10546875 13.8125 C-11 15 -11 15 -13.12890625 14.78515625 C-15.28803077 13.87913531 -16.47372619 12.75521488 -18 11 C-17.1875 9.0625 -17.1875 9.0625 -16 7 C-15.01 6.67 -14.02 6.34 -13 6 C-12.67 6.99 -12.34 7.98 -12 9 C-7.06494309 8.45166034 -4.45776554 4.74931864 -1.4375 1.125 C-0.963125 0.75375 -0.48875 0.3825 0 0 Z " fill="#657071" transform="translate(73,49)"/>
<path d="M0 0 C0.99 0.33 1.98 0.66 3 1 C2.67 1.66 2.34 2.32 2 3 C1.34 3 0.68 3 0 3 C-1.23310116 5.6974088 -2.03696802 7.50709311 -1.8125 10.5 C-2 13 -2 13 -4.3125 15.75 C-7 18 -7 18 -10 19 C-10.8046875 15.83203125 -10.8046875 15.83203125 -11 12 C-8.9453125 9.19921875 -8.9453125 9.19921875 -6.125 6.6875 C-2.59412126 3.70297281 -2.59412126 3.70297281 0 0 Z " fill="#10182B" transform="translate(72,40)"/>
<path d="M0 0 C0.66 0.33 1.32 0.66 2 1 C1.2884375 1.5878125 1.2884375 1.5878125 0.5625 2.1875 C-1.20773142 3.91711841 -1.20773142 3.91711841 -1.375 6.4375 C-2.23510401 9.96392646 -4.13176008 10.90128786 -7 13 C-9.29013653 16.4352048 -9.17842973 17.985331 -9 22 C-9.66 22 -10.32 22 -11 22 C-12.40912886 13.25661008 -12.40912886 13.25661008 -11.125 9.3125 C-7.81351711 5.70882744 -3.94871575 2.87254584 0 0 Z " fill="#E3E0E8" transform="translate(29,23)"/>
<path d="M0 0 C0.66 0.33 1.32 0.66 2 1 C1.67 1.556875 1.34 2.11375 1 2.6875 C-0.1309601 5.30284522 -0.15662974 7.1806646 0 10 C-0.68449219 9.8659375 -1.36898437 9.731875 -2.07421875 9.59375 C-6.63061034 10.22641319 -8.76640964 13.23317845 -11.8125 16.5 C-12.40998047 17.12003906 -13.00746094 17.74007813 -13.62304688 18.37890625 C-15.09357441 19.90825488 -16.5483573 21.45271466 -18 23 C-18 18.74567794 -16.03975166 17.6388367 -13.125 14.625 C-9.75410186 11.13885747 -7.71629069 8.49760105 -6 4 C-2.875 1.6875 -2.875 1.6875 0 0 Z " fill="#8B8B8A" transform="translate(96,12)"/>
<path d="M0 0 C0.66 0 1.32 0 2 0 C2.66 1.98 3.32 3.96 4 6 C2.59290434 7.48827426 1.17393799 8.96533185 -0.25 10.4375 C-1.43335938 11.67306641 -1.43335938 11.67306641 -2.640625 12.93359375 C-4.90734717 14.91885207 -6.0671937 15.6300359 -9 16 C-7.375 9.25 -7.375 9.25 -4 7 C-3.29788106 5.34795544 -2.63028587 3.68076231 -2 2 C-1.34 1.34 -0.68 0.68 0 0 Z " fill="#090B10" transform="translate(64,69)"/>
<path d="M0 0 C0.99 0.33 1.98 0.66 3 1 C3.6875 3.0625 3.6875 3.0625 4 5 C3.34 5 2.68 5 2 5 C2 4.34 2 3.68 2 3 C1.360625 3.391875 0.72125 3.78375 0.0625 4.1875 C-15.49570201 13.39541547 -15.49570201 13.39541547 -20.375 12.625 C-20.91125 12.41875 -21.4475 12.2125 -22 12 C-15.66181498 7.56327049 -9.34191072 4.44730357 -2 2 C-1.34 1.34 -0.68 0.68 0 0 Z " fill="#575757" transform="translate(90,75)"/>
<path d="M0 0 C3.47497286 2.31664857 3.88154612 3.61505531 5.5 7.375 C9.0868286 14.85506969 14.21019239 20.19270052 20 26 C20.77085938 26.7734375 21.54171875 27.546875 22.3359375 28.34375 C23.15964844 29.16359375 23.15964844 29.16359375 24 30 C19.22036929 30 16.95500351 26.78067382 13.5703125 23.6328125 C7.98732518 17.91406865 0 8.50127526 0 0 Z " fill="#0C0C0C" transform="translate(7,83)"/>
<path d="M0 0 C2.60897264 0.52179453 4.68633167 1.31571257 7.125 2.4375 C19.11379877 7.61909947 32.32822348 6.42208314 45 5 C40.68308985 9.31691015 32.54503427 8.96679077 26.70703125 9.04296875 C17.42649158 8.55689907 8.23709983 6.40497185 0 2 C0 1.34 0 0.68 0 0 Z " fill="#020303" transform="translate(36,116)"/>
<path d="M0 0 C-0.4847561 6.54420732 -0.4847561 6.54420732 -2.625 8.4375 C-5.77130879 9.1826784 -8.7710568 9 -12 9 C-15.32186171 9.91114536 -15.32186171 9.91114536 -18 11 C-13.90793979 6.20241216 -6.54758015 0 0 0 Z " fill="#9B9B9A" transform="translate(45,9)"/>
<path d="M0 0 C0.66 0.33 1.32 0.66 2 1 C-2.74541375 6.58050053 -6.57264583 9.81839201 -13.80078125 11.4296875 C-16.26661975 11.94080222 -16.26661975 11.94080222 -19 14 C-19.99 14 -20.98 14 -22 14 C-22 13.34 -22 12.68 -22 12 C-18.38211799 9.96621887 -14.75463659 7.9502167 -11.125 5.9375 C-10.09246094 5.35677734 -9.05992188 4.77605469 -7.99609375 4.17773438 C-7.00996094 3.63310547 -6.02382813 3.08847656 -5.0078125 2.52734375 C-4.09660645 2.01937256 -3.18540039 1.51140137 -2.24658203 0.98803711 C-1.13452393 0.49895874 -1.13452393 0.49895874 0 0 Z " fill="#492C8C" transform="translate(70,97)"/>
<path d="M0 0 C0.680625 0.165 1.36125 0.33 2.0625 0.5 C2.0625 0.83 2.0625 1.16 2.0625 1.5 C0.4125 1.5 -1.2375 1.5 -2.9375 1.5 C-2.875625 2.53125 -2.81375 3.5625 -2.75 4.625 C-2.95112226 8.78152667 -3.70233651 11.02307902 -5.9375 14.5 C-6.9275 14.83 -7.9175 15.16 -8.9375 15.5 C-8.37143721 10.80976546 -7.75212495 6.15499974 -6.9375 1.5 C-8.9175 1.5 -10.8975 1.5 -12.9375 1.5 C-8.65215609 -1.35689594 -4.97351927 -0.84655647 0 0 Z " fill="#8C6BCC" transform="translate(67.9375,14.5)"/>
<path d="M0 0 C0.66 0.763125 1.32 1.52625 2 2.3125 C5.76119987 6.06301464 10.27687334 7.86716455 15.5625 8.125 C19.48534991 6.31445389 22.12846548 3.16944588 25 0 C25.66 0.33 26.32 0.66 27 1 C23.33333333 4.66666667 19.66666667 8.33333333 16 12 C10.14340094 10.33846988 4.5409866 8.52958084 -1 6 C-0.67 4.02 -0.34 2.04 0 0 Z " fill="#494E4E" transform="translate(35,71)"/>
<path d="M0 0 C-5.5 7.07142857 -5.5 7.07142857 -10 9 C-13.8125 9.1875 -13.8125 9.1875 -17 9 C-15.65956883 4.9787065 -13.17755644 4.11049831 -9.625 2.25 C-9.03460938 1.92128906 -8.44421875 1.59257813 -7.8359375 1.25390625 C-3.37761769 -1.12587256 -3.37761769 -1.12587256 0 0 Z " fill="#BABABA" transform="translate(66,31)"/>
<path d="M0 0 C0 0.66 0 1.32 0 2 C-0.94359375 2.44988281 -1.8871875 2.89976563 -2.859375 3.36328125 C-12.30437417 8.03699341 -19.60847222 13.51212084 -27 21 C-27.66 20.67 -28.32 20.34 -29 20 C-22.87846429 12.19605547 -10.73649722 0 0 0 Z " fill="#F6F6F6" transform="translate(45,7)"/>
<path d="M0 0 C4.01552844 0.92022527 6.20307994 2.08147472 9 5 C11.59915538 6.19027984 11.59915538 6.19027984 14 7 C14 7.66 14 8.32 14 9 C6.84578866 8.27245308 2.00796907 7.56441007 -3 2 C-2.01 1.34 -1.02 0.68 0 0 Z " fill="#C8A9E9" transform="translate(20,45)"/>
<path d="M0 0 C2.00720923 0.28674418 4.0085944 0.61866701 6 1 C4.97829364 3.26105431 3.93435946 5.50665056 2.875 7.75 C2.59140625 8.38421875 2.3078125 9.0184375 2.015625 9.671875 C-0.22578891 14.34960837 -2.47372824 16.46118468 -7 19 C-5.36 14.33230769 -5.36 14.33230769 -3.375 12.5 C-1.71670355 11.03946337 -1.71670355 11.03946337 -2.0625 8.5625 C-2 6 -2 6 0 3.6875 C0.99 2.8521875 0.99 2.8521875 2 2 C1.01 1.67 0.02 1.34 -1 1 C-0.67 0.67 -0.34 0.34 0 0 Z " fill="#1F1C4C" transform="translate(102,47)"/>
<path d="M0 0 C3.3 0 6.6 0 10 0 C10 0.33 10 0.66 10 1 C8.35 1 6.7 1 5 1 C5 3.31 5 5.62 5 8 C2.69 9.32 0.38 10.64 -2 12 C-1.34 8.04 -0.68 4.08 0 0 Z " fill="#5733A3" transform="translate(65,16)"/>
<path d="M0 0 C2.69030764 1.36574291 4.95866823 2.75913956 7 5 C7.61361622 8.08355042 7.42575 10.89810712 7 14 C4.08924003 12.22625564 1.40825434 10.42406345 -1 8 C-1.5625 4.1875 -1.5625 4.1875 -1 1 C-0.67 0.67 -0.34 0.34 0 0 Z " fill="#666666" transform="translate(96,15)"/>
<path d="M0 0 C3.3 0.66 6.6 1.32 10 2 C10 3.32 10 4.64 10 6 C9.01 6.99 8.02 7.98 7 9 C4.36 6.69 1.72 4.38 -1 2 C-0.67 1.34 -0.34 0.68 0 0 Z " fill="#383838" transform="translate(24,104)"/>
<path d="M0 0 C2.2477975 2.05233685 3.0022242 3.00667261 4 6 C6.10584438 6.80563638 6.10584438 6.80563638 8.5625 7.1875 C9.38878906 7.34605469 10.21507813 7.50460938 11.06640625 7.66796875 C12.02353516 7.83232422 12.02353516 7.83232422 13 8 C13 8.66 13 9.32 13 10 C12.09636719 9.91621094 11.19273438 9.83242188 10.26171875 9.74609375 C9.08222656 9.64425781 7.90273437 9.54242188 6.6875 9.4375 C5.51574219 9.33308594 4.34398438 9.22867188 3.13671875 9.12109375 C-0.03032575 8.81422566 -0.03032575 8.81422566 -3 10 C-2.88637738 8.5199159 -2.75877092 7.04089926 -2.625 5.5625 C-2.55539063 4.73878906 -2.48578125 3.91507813 -2.4140625 3.06640625 C-2.27742188 2.38449219 -2.14078125 1.70257813 -2 1 C-1.34 0.67 -0.68 0.34 0 0 Z " fill="#151629" transform="translate(107,37)"/>
<path d="M0 0 C1.375 1.8125 1.375 1.8125 2 4 C1.625 6.25 1.625 6.25 1 8 C0.01 7.34 -0.98 6.68 -2 6 C-2.28875 6.639375 -2.5775 7.27875 -2.875 7.9375 C-4 10 -4 10 -6 11 C-5.67 8.36 -5.34 5.72 -5 3 C-6.32 2.34 -7.64 1.68 -9 1 C-5.69708067 -1.07961587 -3.69218461 -1.36027854 0 0 Z " fill="#291F5B" transform="translate(112,46)"/>
<path d="M0 0 C5.10679474 -0.1919046 9.78615829 -0.1941811 14.75 1.125 C18.72558826 2.14184673 21.20436775 1.75183027 25 0 C22.83676753 2.31242092 20.62352196 4.0156396 17.9375 5.6875 C16.89916016 6.34298828 16.89916016 6.34298828 15.83984375 7.01171875 C14 8 14 8 12 8 C12 7.34 12 6.68 12 6 C12.66 5.67 13.32 5.34 14 5 C7.11175931 2.59009896 7.11175931 2.59009896 0 1 C0 0.67 0 0.34 0 0 Z " fill="#B2A4CE" transform="translate(65,14)"/>
<path d="M0 0 C0.66 0 1.32 0 2 0 C3.41015625 1.50390625 3.41015625 1.50390625 5.0625 3.5625 C8.88435283 8.08583215 13.22292131 11.53363904 18 15 C17.67 15.66 17.34 16.32 17 17 C14.38479348 16.87592086 12.56816576 16.49860237 10.57226562 14.74707031 C9.06809462 13.08386349 7.65038559 11.37642564 6.25 9.625 C5.75628906 9.03460938 5.26257813 8.44421875 4.75390625 7.8359375 C2.63235966 5.25520686 1.06465827 3.19397481 0 0 Z " fill="#4D2D95" transform="translate(20,90)"/>
<path d="M0 0 C1.32 0.33 2.64 0.66 4 1 C3.01 1.495 3.01 1.495 2 2 C2 2.66 2 3.32 2 4 C5.31016094 5.84790538 8.57173491 6.74541487 12.25 7.625 C13.86648437 8.01558594 13.86648437 8.01558594 15.515625 8.4140625 C16.33546875 8.60742188 17.1553125 8.80078125 18 9 C18 9.66 18 10.32 18 11 C11.37133831 11.2247004 7.43205742 11.05373738 2.1875 6.625 C0 4 0 4 0 0 Z " fill="#775ABA" transform="translate(16,45)"/>
<path d="M0 0 C0 2.64 0 5.28 0 8 C-4.455 8.495 -4.455 8.495 -9 9 C-8.01 7.35 -7.02 5.7 -6 4 C-6.66 3.34 -7.32 2.68 -8 2 C-1.125 0 -1.125 0 0 0 Z " fill="#464548" transform="translate(82,112)"/>
<path d="M0 0 C0.66 0.33 1.32 0.66 2 1 C5.86061033 2.28687011 8.94150283 2.13757618 13 2 C11.35 3.98 9.7 5.96 8 8 C3.62140745 7.49477778 1.18348776 4.82172778 -2 2 C-1.34 1.34 -0.68 0.68 0 0 Z " fill="#271B57" transform="translate(31,97)"/>
<path d="M0 0 C1.64812508 0.56118954 3.26995055 1.200414 4.875 1.875 C10.90025749 4.18933732 16.58639272 4.77613936 23 5 C23 5.33 23 5.66 23 6 C6.29157175 6.55353075 6.29157175 6.55353075 -2 3 C-2 2.34 -2 1.68 -2 1 C-1.34 0.67 -0.68 0.34 0 0 Z " fill="#65508D" transform="translate(47,110)"/>
<path d="M0 0 C5.50726139 2.21500843 8.09270013 7.04916327 11 12 C12.23991439 14.95238357 13.21314893 17.89755863 14 21 C13.34 21 12.68 21 12 21 C11.63648437 20.2265625 11.27296875 19.453125 10.8984375 18.65625 C8.07378762 12.80415487 5.18953917 7.48858313 1.1015625 2.42578125 C0 1 0 1 0 0 Z " fill="#7D7D7D" transform="translate(107,24)"/>
<path d="M0 0 C3.16115776 1.36983503 3.9927092 1.9890638 6 5 C5.96856707 7.73990408 5.44521663 10.28417854 5 13 C0.17970402 9.14376321 0.17970402 9.14376321 -0.33203125 5.88671875 C-0.3145776 3.92143786 -0.16596091 1.95833873 0 0 Z " fill="#4D4D4D" transform="translate(102,21)"/>
<path d="M0 0 C6.0546875 -0.1953125 6.0546875 -0.1953125 8 0 C8.66 0.66 9.32 1.32 10 2 C6.71195019 4.91227269 4.40114397 6.49701212 0 7 C0 4.69 0 2.38 0 0 Z " fill="#2A2056" transform="translate(70,17)"/>
<path d="M0 0 C5.94 0.66 11.88 1.32 18 2 C17.67 2.66 17.34 3.32 17 4 C11.21408489 4.10477512 5.70690634 3.99250545 0 3 C0 2.01 0 1.02 0 0 Z " fill="#271B58" transform="translate(16,58)"/>
<path d="M0 0 C0.66 0.33 1.32 0.66 2 1 C-4.57651169 5.04708412 -10.29290227 6.01970832 -18 5 C-18.66 4.34 -19.32 3.68 -20 3 C-18.35 2.34 -16.7 1.68 -15 1 C-15 1.33 -15 1.66 -15 2 C-7.28981705 2.28192294 -7.28981705 2.28192294 0 0 Z " fill="#969696" transform="translate(61,39)"/>
<path d="M0 0 C0.33 2.64 0.66 5.28 1 8 C-4.94 7.01 -4.94 7.01 -11 6 C-3.8 0 -3.8 0 0 0 Z " fill="#A0A8DB" transform="translate(48,18)"/>
<path d="M0 0 C0.66 0.66 1.32 1.32 2 2 C1.071875 2.515625 0.14375 3.03125 -0.8125 3.5625 C-4.49157741 5.97500977 -5.38368432 8.9592108 -7 13 C-9.1875 14.9375 -9.1875 14.9375 -11 16 C-9.125 10.25 -9.125 10.25 -8 8 C-8.66 7.67 -9.32 7.34 -10 7 C-6.7 4.69 -3.4 2.38 0 0 Z " fill="#949494" transform="translate(76,21)"/>
<path d="M0 0 C0.66 0.99 1.32 1.98 2 3 C1.48050781 3.44730469 0.96101563 3.89460938 0.42578125 4.35546875 C-4.34389799 8.48714557 -4.34389799 8.48714557 -8.875 12.875 C-11 15 -11 15 -13 16 C-8.83162518 7.34260615 -8.83162518 7.34260615 -4 5 C-1.77183014 2.46557594 -1.77183014 2.46557594 0 0 Z " fill="#7A8283" transform="translate(61,81)"/>
<path d="M0 0 C0.33 0.66 0.66 1.32 1 2 C-3.32893185 7.18419194 -7.76564995 11.72706118 -13 16 C-13.33 15.34 -13.66 14.68 -14 14 C-13.34 14 -12.68 14 -12 14 C-11.34 12.68 -10.68 11.36 -10 10 C-9.34 10 -8.68 10 -8 10 C-7.79375 9.46375 -7.5875 8.9275 -7.375 8.375 C-5.42003056 4.9982346 -2.81776305 2.69525161 0 0 Z " fill="#422787" transform="translate(110,61)"/>
<path d="M0 0 C3.53233755 1.17744585 3.86308075 1.95605641 5.6875 5.0625 C6.34298828 6.16271484 6.34298828 6.16271484 7.01171875 7.28515625 C7.33785156 7.85105469 7.66398437 8.41695312 8 9 C5.03 8.67 2.06 8.34 -1 8 C-2 4 -2 4 -1.0625 1.75 C-0.711875 1.1725 -0.36125 0.595 0 0 Z " fill="#535556" transform="translate(10,36)"/>
<path d="M0 0 C0 3.63787651 -0.67888836 4.13064655 -3.0625 6.75 C-3.69414063 7.44609375 -4.32578125 8.1421875 -4.9765625 8.859375 C-7.9198308 11.97310285 -10.92869131 15.01270887 -14 18 C-14 14.36535685 -13.37451463 13.97159118 -10.9375 11.42578125 C-10.30585937 10.75869141 -9.67421875 10.09160156 -9.0234375 9.40429688 C-8.35570313 8.71400391 -7.68796875 8.02371094 -7 7.3125 C-5.99839844 6.2596582 -5.99839844 6.2596582 -4.9765625 5.18554688 C-3.32422679 3.45059438 -1.6652685 1.72252793 0 0 Z " fill="#9E9E9E" transform="translate(92,17)"/>
<path d="M0 0 C6.27 0.66 12.54 1.32 19 2 C19 2.66 19 3.32 19 4 C13.06 4 7.12 4 1 4 C0.67 2.68 0.34 1.36 0 0 Z " fill="#0E0F23" transform="translate(15,63)"/>
<path d="M0 0 C0.66 0.33 1.32 0.66 2 1 C-11.8630137 11 -11.8630137 11 -16 11 C-16 10.34 -16 9.68 -16 9 C-13.38029207 7.46935061 -10.75498357 5.95030252 -8.125 4.4375 C-7.37863281 3.99986328 -6.63226563 3.56222656 -5.86328125 3.11132812 C-5.14785156 2.70205078 -4.43242188 2.29277344 -3.6953125 1.87109375 C-3.03547363 1.48880615 -2.37563477 1.10651855 -1.69580078 0.71264648 C-1.13618652 0.47747314 -0.57657227 0.2422998 0 0 Z " fill="#59565E" transform="translate(71,23)"/>
<path d="M0 0 C1.9078584 3.1749094 2.1609041 5.10585211 1.625 8.75 C1.51414062 9.54921875 1.40328125 10.3484375 1.2890625 11.171875 C1.19367187 11.77515625 1.09828125 12.3784375 1 13 C-3 8.5 -3 8.5 -3 4 C-1.5 1.75 -1.5 1.75 0 0 Z " fill="#B0B0B0" transform="translate(15,29)"/>
<path d="M0 0 C-0.99 0.70125 -1.98 1.4025 -3 2.125 C-5.69099605 4.32959535 -5.95971924 4.64418661 -6.375 8.3125 C-6.189375 9.6428125 -6.189375 9.6428125 -6 11 C-8.89932357 8.60490662 -9.50168276 6.68754757 -10 3 C-3.375 -1.125 -3.375 -1.125 0 0 Z " fill="#3A2A7B" transform="translate(86,91)"/>
<path d="M0 0 C0.33 0 0.66 0 1 0 C1 5.28 1 10.56 1 16 C0.34 15.34 -0.32 14.68 -1 14 C-1 13.01 -1 12.02 -1 11 C-2.98 11.33 -4.96 11.66 -7 12 C-5.71034824 10.62437146 -4.37310707 9.29233607 -3 8 C-2.34 8 -1.68 8 -1 8 C-0.67 5.36 -0.34 2.72 0 0 Z " fill="#706F75" transform="translate(93,62)"/>
<path d="M0 0 C0.66 0.33 1.32 0.66 2 1 C2 1.66 2 2.32 2 3 C1.01 3.33 0.02 3.66 -1 4 C-0.67 2.68 -0.34 1.36 0 0 Z M-1 4 C-1.80847729 5.16945792 -2.62189112 6.33550461 -3.4375 7.5 C-3.88996094 8.1496875 -4.34242187 8.799375 -4.80859375 9.46875 C-5.20175781 9.9740625 -5.59492187 10.479375 -6 11 C-6.33 11 -6.66 11 -7 11 C-7.33 8.69 -7.66 6.38 -8 4 C-5.3333581 2.66667905 -3.83319697 3.32897967 -1 4 Z " fill="#0D192B" transform="translate(100,47)"/>
<path d="M0 0 C3.53208912 0.57444966 5.12893053 1.7944364 7.5625 4.375 C8.14128906 4.98085937 8.72007813 5.58671875 9.31640625 6.2109375 C10.14978516 7.09652344 10.14978516 7.09652344 11 8 C11.996589 9.0033994 12.99543038 10.00459059 14 11 C9.89707103 11 8.8472941 9.37198901 5.875 6.625 C4.98554688 5.81289062 4.09609375 5.00078125 3.1796875 4.1640625 C1 2 1 2 0 0 Z " fill="#060606" transform="translate(17,102)"/>
<path d="M0 0 C0.66 0.33 1.32 0.66 2 1 C1.67 2.32 1.34 3.64 1 5 C0.01 4.34 -0.98 3.68 -2 3 C-2.226875 3.7425 -2.45375 4.485 -2.6875 5.25 C-4.24407532 8.51139591 -6.08518854 9.92894975 -9 12 C-7.54822555 7.88663907 -5.61875142 4.49166855 -3 1 C-2.01 0.67 -1.02 0.34 0 0 Z " fill="#3B2579" transform="translate(113,54)"/>
<path d="M0 0 C3.17896475 0.06935923 5.42117618 0.44745079 8.125 2.25 C7.795 3.24 7.465 4.23 7.125 5.25 C2.835 4.26 -1.455 3.27 -5.875 2.25 C-3.875 0.25 -3.875 0.25 0 0 Z " fill="#E5DCF7" transform="translate(39.875,23.75)"/>
<path d="M0 0 C0.33 0 0.66 0 1 0 C0.18754124 11.0109542 0.18754124 11.0109542 -2 15 C-2.99 15.495 -2.99 15.495 -4 16 C-3.855625 15.28328125 -3.71125 14.5665625 -3.5625 13.828125 C-3.20024712 12.006798 -2.84548304 10.18395733 -2.5 8.359375 C-2.335 7.49828125 -2.17 6.6371875 -2 5.75 C-1.835 4.87859375 -1.67 4.0071875 -1.5 3.109375 C-1 1 -1 1 0 0 Z " fill="#A182DA" transform="translate(60,16)"/>
<path d="M0 0 C0.33 0.99 0.66 1.98 1 3 C-0.24517965 4.13033298 -1.49636652 5.25405036 -2.75 6.375 C-3.44609375 7.00148438 -4.1421875 7.62796875 -4.859375 8.2734375 C-6.84508688 9.87505183 -8.67954093 10.96520068 -11 12 C-7.72469104 7.36279281 -4.69564393 3.31457218 0 0 Z " fill="#FCFCFC" transform="translate(27,16)"/>
<path d="M0 0 C1.98 0.66 3.96 1.32 6 2 C5.1875 3.9375 5.1875 3.9375 4 6 C3.01 6.33 2.02 6.66 1 7 C0.34 5.02 -0.32 3.04 -1 1 C-0.67 0.67 -0.34 0.34 0 0 Z " fill="#0C1316" transform="translate(67,66)"/>
<path d="M0 0 C0.66 0 1.32 0 2 0 C2.66 1.98 3.32 3.96 4 6 C1 7 1 7 -1.1875 6.0625 C-1.785625 5.711875 -2.38375 5.36125 -3 5 C-1.125 1.125 -1.125 1.125 0 0 Z " fill="#111725" transform="translate(58,55)"/>
<path d="M0 0 C-3.28804981 2.91227269 -5.59885603 4.49701212 -10 5 C-9.01906046 2.54765115 -8.31296172 1.2190732 -6.125 -0.3125 C-3.64990694 -1.1132654 -2.41712366 -0.86325845 0 0 Z " fill="#C4C4C3" transform="translate(63,33)"/>
<path d="M0 0 C0.66 0.33 1.32 0.66 2 1 C-0.67131409 4.45699471 -3.88119029 4.98836253 -8 6 C-9.2065625 6.309375 -9.2065625 6.309375 -10.4375 6.625 C-10.953125 6.74875 -11.46875 6.8725 -12 7 C-12 6.34 -12 5.68 -12 5 C-8.31109207 3.0268632 -5.11804977 1.70595139 -1 1 C-0.67 0.67 -0.34 0.34 0 0 Z " fill="#502E99" transform="translate(60,104)"/>
<path d="M0 0 C-2 3 -2 3 -4.3125 3.5625 C-5.199375 3.706875 -6.08625 3.85125 -7 4 C-8.3303125 4.556875 -8.3303125 4.556875 -9.6875 5.125 C-10.450625 5.41375 -11.21375 5.7025 -12 6 C-12.66 5.67 -13.32 5.34 -14 5 C-12.34151823 3.98648336 -10.67334039 2.98879205 -9 2 C-8.34 1.608125 -7.68 1.21625 -7 0.8125 C-4.56451887 -0.17691421 -2.60422365 -0.14467909 0 0 Z " fill="#616261" transform="translate(69,85)"/>
<path d="M0 0 C0.66 0.33 1.32 0.66 2 1 C2 1.66 2 2.32 2 3 C0.33720673 4.0064275 -1.32983484 5.00585407 -3 6 C-3.99 7.485 -3.99 7.485 -5 9 C-7.625 9.6875 -7.625 9.6875 -10 10 C-6.66666667 6.66666667 -3.33333333 3.33333333 0 0 Z " fill="#7F7F7F" transform="translate(90,67)"/>
<path d="M0 0 C-0.33 1.32 -0.66 2.64 -1 4 C-1.99 4 -2.98 4 -4 4 C-4.2475 4.61875 -4.495 5.2375 -4.75 5.875 C-6.20628639 8.35068687 -7.37812506 8.95125002 -10 10 C-8.50006099 6.10015857 -4.53875449 0 0 0 Z " fill="#8C9496" transform="translate(76,36)"/>
<path d="M0 0 C-0.33 1.65 -0.66 3.3 -1 5 C-3.64 5 -6.28 5 -9 5 C-6.45523312 2.20075644 -3.92372883 0 0 0 Z " fill="#6B6A6A" transform="translate(45,9)"/>
<path d="M0 0 C0.99 0.33 1.98 0.66 3 1 C-3.93 4.465 -3.93 4.465 -11 8 C-11 7.01 -11 6.02 -11 5 C-10.37351562 4.72285156 -9.74703125 4.44570312 -9.1015625 4.16015625 C-8.28429687 3.79792969 -7.46703125 3.43570313 -6.625 3.0625 C-5.81289063 2.70285156 -5.00078125 2.34320313 -4.1640625 1.97265625 C-2.76316215 1.3430097 -1.37374716 0.68687358 0 0 Z " fill="#434347" transform="translate(29,119)"/>
<path d="M0 0 C0.69480469 0.47050781 1.38960937 0.94101562 2.10546875 1.42578125 C5.26311534 3.14309781 7.76885255 3.68126465 11.3125 4.1875 C12.38113281 4.34605469 13.44976562 4.50460938 14.55078125 4.66796875 C15.76314453 4.83232422 15.76314453 4.83232422 17 5 C17 5.33 17 5.66 17 6 C10.93107371 6.25287193 5.83799592 5.69832609 0 4 C0 2.68 0 1.36 0 0 Z " fill="#5633A1" transform="translate(17,51)"/>
<path d="M0 0 C2.3129482 2.3129482 2.49580975 3.47904875 3.125 6.625 C3.29257813 7.44226563 3.46015625 8.25953125 3.6328125 9.1015625 C3.81457031 10.04128906 3.81457031 10.04128906 4 11 C0.125 9.25 0.125 9.25 -1 7 C-1.125 3.9375 -1.125 3.9375 -1 1 C-0.67 0.67 -0.34 0.34 0 0 Z " fill="#727272" transform="translate(96,15)"/>
<path d="M0 0 C1.60332791 -0.08121924 3.20784026 -0.13929134 4.8125 -0.1875 C6.15248047 -0.23970703 6.15248047 -0.23970703 7.51953125 -0.29296875 C10.41647515 0.04918998 11.22555028 0.75393573 13 3 C11.58376784 3.05447047 10.16691809 3.09300508 8.75 3.125 C7.96109375 3.14820312 7.1721875 3.17140625 6.359375 3.1953125 C3.79268059 2.9828378 2.2083933 2.28654105 0 1 C0 0.67 0 0.34 0 0 Z " fill="#6841B4" transform="translate(54,112)"/>
<path d="M0 0 C1.69752187 0.25245197 3.38471545 0.57645775 5.0625 0.9375 C5.98160156 1.13214844 6.90070312 1.32679687 7.84765625 1.52734375 C8.91306641 1.76130859 8.91306641 1.76130859 10 2 C9.67 2.66 9.34 3.32 9 4 C7.72125 4.061875 6.4425 4.12375 5.125 4.1875 C4.40570312 4.22230469 3.68640625 4.25710937 2.9453125 4.29296875 C2.30335937 4.19628906 1.66140625 4.09960938 1 4 C0.34 3.01 -0.32 2.02 -1 1 C-0.67 0.67 -0.34 0.34 0 0 Z " fill="#4A4A49" transform="translate(24,104)"/>
<path d="M0 0 C0.99 0 1.98 0 3 0 C3.33 0.66 3.66 1.32 4 2 C6.02463255 2.65213292 6.02463255 2.65213292 8 3 C8 3.99 8 4.98 8 6 C1.25 4.375 1.25 4.375 -1 1 C-0.67 0.67 -0.34 0.34 0 0 Z " fill="#727272" transform="translate(16,95)"/>
<path d="M0 0 C1.32 0.33 2.64 0.66 4 1 C0.535 3.97 0.535 3.97 -3 7 C-3.66 6.67 -4.32 6.34 -5 6 C-5 5.34 -5 4.68 -5 4 C-2.75 1.8125 -2.75 1.8125 0 0 Z " fill="#707575" transform="translate(73,49)"/>
<path d="M0 0 C4.02992782 0.55312735 8.02022924 1.1558062 12 2 C12 2.66 12 3.32 12 4 C9.36 4 6.72 4 4 4 C4 3.34 4 2.68 4 2 C2.68 1.67 1.36 1.34 0 1 C0 0.67 0 0.34 0 0 Z " fill="#8B62CC" transform="translate(22,52)"/>
<path d="M0 0 C3.1875 0.875 3.1875 0.875 6 2 C5.34 2.66 4.68 3.32 4 4 C3.34 3.67 2.68 3.34 2 3 C2.66 4.32 3.32 5.64 4 7 C1.11562221 5.70700306 -0.87219421 4.34058637 -3 2 C-2.01 1.34 -1.02 0.68 0 0 Z " fill="#9CA8DB" transform="translate(20,45)"/>
<path d="M0 0 C3.66060821 0.58536753 5.54535164 2.083239 8.25 4.5625 C8.95640625 5.20316406 9.6628125 5.84382813 10.390625 6.50390625 C10.92171875 6.99761719 11.4528125 7.49132812 12 8 C11.01 8.33 10.02 8.66 9 9 C7.49704815 7.69088122 5.99770689 6.37761608 4.5 5.0625 C3.6646875 4.33160156 2.829375 3.60070312 1.96875 2.84765625 C1.3190625 2.23792969 0.669375 1.62820312 0 1 C0 0.67 0 0.34 0 0 Z " fill="#BBBABB" transform="translate(97,15)"/>
<path d="M0 0 C1 2 1 2 0.25 5.0625 C-0.1625 6.031875 -0.575 7.00125 -1 8 C-4 9 -4 9 -7.1875 7.5625 C-8.115625 7.046875 -9.04375 6.53125 -10 6 C-7.13822943 4.56911472 -5.06624227 5.40008303 -2 6 C-1.34 4.02 -0.68 2.04 0 0 Z " fill="#5461AF" transform="translate(113,75)"/>
<path d="M0 0 C1.32 0 2.64 0 4 0 C2.72278474 4.99275057 0.82669043 7.57611908 -3 11 C-3.33 10.34 -3.66 9.68 -4 9 C-3.01 8.34 -2.02 7.68 -1 7 C0.31068333 4.55711372 0.31068333 4.55711372 1 2 C0.67 1.34 0.34 0.68 0 0 Z " fill="#A4A4A4" transform="translate(64,29)"/>
<path d="M0 0 C0.66 0.33 1.32 0.66 2 1 C0.88200014 2.33920838 -0.24461897 3.67122556 -1.375 5 C-2.00148438 5.7425 -2.62796875 6.485 -3.2734375 7.25 C-4.12808594 8.11625 -4.12808594 8.11625 -5 9 C-5.66 9 -6.32 9 -7 9 C-7 7.68 -7 6.36 -7 5 C-5.46875 3.515625 -5.46875 3.515625 -3.5 2.25 C-2.8503125 1.82203125 -2.200625 1.3940625 -1.53125 0.953125 C-1.0259375 0.63859375 -0.520625 0.3240625 0 0 Z " fill="#F3F3F3" transform="translate(29,23)"/>
<path d="M0 0 C-1.5625 2.0625 -1.5625 2.0625 -4 4 C-7.75 3.75 -7.75 3.75 -11 3 C-8.89427904 -1.21144191 -4.11694326 -0.07767817 0 0 Z " fill="#B5B5B5" transform="translate(40,17)"/>
<path d="M0 0 C-1.60032137 0.84069415 -3.20541171 1.67231505 -4.8125 2.5 C-6.15248047 3.19609375 -6.15248047 3.19609375 -7.51953125 3.90625 C-10 5 -10 5 -13 5 C-12.67 4.01 -12.34 3.02 -12 2 C-9.78515625 1.015625 -9.78515625 1.015625 -7.0625 0.25 C-6.16660156 -0.01296875 -5.27070312 -0.2759375 -4.34765625 -0.546875 C-2 -1 -2 -1 0 0 Z " fill="#7D7D7D" transform="translate(80,78)"/>
<path d="M0 0 C0.66 0 1.32 0 2 0 C1.67 3.63 1.34 7.26 1 11 C0.01 11.33 -0.98 11.66 -2 12 C-1.34 8.04 -0.68 4.08 0 0 Z " fill="#6D48B5" transform="translate(65,16)"/>
<path d="M0 0 C0 3.58912412 -0.66436554 4.10857029 -3 6.6875 C-3.556875 7.31011719 -4.11375 7.93273437 -4.6875 8.57421875 C-5.120625 9.04472656 -5.55375 9.51523438 -6 10 C-6.66 9.34 -7.32 8.68 -8 8 C-5.36 5.36 -2.72 2.72 0 0 Z " fill="#4D2B98" transform="translate(108,69)"/>
<path d="M0 0 C0.66 0.33 1.32 0.66 2 1 C1.75 2.875 1.75 2.875 1 5 C-1.0625 6.25 -1.0625 6.25 -3 7 C-2.25 2.25 -2.25 2.25 0 0 Z " fill="#0E111A" transform="translate(65,52)"/>
<path d="M0 0 C1.32 0.66 2.64 1.32 4 2 C-2.75 6 -2.75 6 -5 6 C-3.63016497 2.83884224 -3.0109362 2.0072908 0 0 Z " fill="#A8A7BE" transform="translate(32,23)"/>
<path d="M0 0 C1.32 0.66 2.64 1.32 4 2 C0.93882432 4.62386487 0.26826873 5 -4 5 C-3 2 -3 2 0 0 Z " fill="#4F4D68" transform="translate(37,19)"/>
<path d="M0 0 C-0.33 0.99 -0.66 1.98 -1 3 C-4.0625 4.1875 -4.0625 4.1875 -7 5 C-7.33 4.01 -7.66 3.02 -8 2 C-2.25 0 -2.25 0 0 0 Z " fill="#15182F" transform="translate(47,16)"/>
<path d="M0 0 C2.97 0.33 5.94 0.66 9 1 C8.67 1.99 8.34 2.98 8 4 C5.03 3.67 2.06 3.34 -1 3 C-0.67 2.01 -0.34 1.02 0 0 Z " fill="#888888" transform="translate(35,13)"/>
<path d="M0 0 C2 2 2 2 2.1953125 4.3828125 C2.17210938 5.28773437 2.14890625 6.19265625 2.125 7.125 C2.10695313 8.03507812 2.08890625 8.94515625 2.0703125 9.8828125 C2.03550781 10.93082031 2.03550781 10.93082031 2 12 C-0.15229884 8.77155174 -0.60309873 6.81025223 -1 3 C-0.67 2.01 -0.34 1.02 0 0 Z " fill="#A1A1A0" transform="translate(91,59)"/>
<path d="M0 0 C0.66 0 1.32 0 2 0 C1.52797514 4.24822374 -0.96655518 6.19989709 -4 9 C-3.35494404 5.51669784 -2.01782732 2.90567134 0 0 Z " fill="#1A163F" transform="translate(99,55)"/>
<path d="M0 0 C0.99 0.33 1.98 0.66 3 1 C2.04663979 2.31611677 1.08714226 3.62778961 0.125 4.9375 C-0.40867187 5.66839844 -0.94234375 6.39929688 -1.4921875 7.15234375 C-3 9 -3 9 -5 10 C-3.66511872 6.40608886 -2.03977277 3.24509304 0 0 Z " fill="#434146" transform="translate(110,86)"/>
<path d="M0 0 C0.66 0.33 1.32 0.66 2 1 C-2.455 3.97 -2.455 3.97 -7 7 C-7.66 6.34 -8.32 5.68 -9 5 C-7.54735962 4.1361871 -6.0876837 3.28419546 -4.625 2.4375 C-3.40683594 1.72400391 -3.40683594 1.72400391 -2.1640625 0.99609375 C-1.44992188 0.66738281 -0.73578125 0.33867188 0 0 Z " fill="#606060" transform="translate(82,79)"/>
<path d="M0 0 C0.33 0 0.66 0 1 0 C1.33 2.64 1.66 5.28 2 8 C1.34 7.67 0.68 7.34 0 7 C0 6.01 0 5.02 0 4 C-1.65 4.66 -3.3 5.32 -5 6 C-3.35830472 3.97945196 -1.69088222 1.97956942 0 0 Z " fill="#6B9295" transform="translate(60,51)"/>
<path d="M0 0 C-1.25 1.5625 -1.25 1.5625 -3 3 C-5.125 2.8125 -5.125 2.8125 -7 2 C-7.33 1.34 -7.66 0.68 -8 0 C-4.94736336 -0.98120464 -3.05263664 -0.98120464 0 0 Z " fill="#32206C" transform="translate(42,102)"/>
<path d="M0 0 C0.66 0 1.32 0 2 0 C2.185625 1.2065625 2.185625 1.2065625 2.375 2.4375 C2.58125 3.283125 2.7875 4.12875 3 5 C3.66 5.33 4.32 5.66 5 6 C3.35 6.33 1.7 6.66 0 7 C0 4.69 0 2.38 0 0 Z " fill="#402B7B" transform="translate(70,17)"/>
<path d="M0 0 C2.97 0.99 5.94 1.98 9 3 C8.67 3.66 8.34 4.32 8 5 C4.75791433 4.64950425 3.38472296 4.43778819 1.1875 1.9375 C0.795625 1.298125 0.40375 0.65875 0 0 Z " fill="#7258A4" transform="translate(29,102)"/>
<path d="M0 0 C5.75 -0.125 5.75 -0.125 8 1 C7.67 1.66 7.34 2.32 7 3 C5.34385343 3.38218767 3.67542976 3.71395102 2 4 C1.01 4.495 1.01 4.495 0 5 C0 3.35 0 1.7 0 0 Z " fill="#3A2F83" transform="translate(95,78)"/>
<path d="M0 0 C0 0.66 0 1.32 0 2 C-2.3125 4.1875 -2.3125 4.1875 -5 6 C-5.99 5.67 -6.98 5.34 -8 5 C-2.25 0 -2.25 0 0 0 Z " fill="#636463" transform="translate(92,73)"/>
<path d="M0 0 C2.8992226 0.46761655 3.86675182 0.86675182 6 3 C5.67 3.99 5.34 4.98 5 6 C5 5.34 5 4.68 5 4 C4.38125 3.87625 3.7625 3.7525 3.125 3.625 C1 3 1 3 -1 1 C-0.67 0.67 -0.34 0.34 0 0 Z " fill="#486161" transform="translate(68,64)"/>
<path d="M0 0 C0.33 1.32 0.66 2.64 1 4 C0.01 4.66 -0.98 5.32 -2 6 C-2 5.34 -2 4.68 -2 4 C-3.32 3.34 -4.64 2.68 -6 2 C-2.25 0 -2.25 0 0 0 Z " fill="#295379" transform="translate(109,45)"/>
<path d="M0 0 C1.4606285 2.64738916 2 3.89448334 2 7 C2.66 7.33 3.32 7.66 4 8 C2.68 8.33 1.36 8.66 0 9 C-0.87890625 2.84765625 -0.87890625 2.84765625 -1 1 C-0.67 0.67 -0.34 0.34 0 0 Z " fill="#676C6B" transform="translate(46,6)"/>
<path d="M0 0 C0.99 0.66 1.98 1.32 3 2 C1.02 3.32 -0.96 4.64 -3 6 C-3.66 5.67 -4.32 5.34 -5 5 C-3.35 3.35 -1.7 1.7 0 0 Z " fill="#535255" transform="translate(37,106)"/>
<path d="M0 0 C0 3 0 3 0 3 Z M-3 3 C-2.34 3.33 -1.68 3.66 -1 4 C-2.65 5.65 -4.3 7.3 -6 9 C-6.33 8.34 -6.66 7.68 -7 7 C-6.34 7 -5.68 7 -5 7 C-4.34 5.68 -3.68 4.36 -3 3 Z " fill="#3C257D" transform="translate(103,68)"/>
<path d="M0 0 C0.99 0.66 1.98 1.32 3 2 C0.69 3.65 -1.62 5.3 -4 7 C-4.66 6.67 -5.32 6.34 -6 6 C-4.02 4.02 -2.04 2.04 0 0 Z " fill="#C0C0C0" transform="translate(26,19)"/>
</svg>
